<svg width="157" height="198" viewBox="0 0 157 198" fill="none" xmlns="http://www.w3.org/2000/svg">
<g clip-path="url(#clip0_2783_206)">
<g clip-path="url(#clip1_2783_206)">
<path d="M231.229 112.829L153.02 -136.232H378.561L319.179 112.829H231.229Z" fill="#164A51"/>
<path d="M132.52 313.604C132.52 313.144 127.275 296.565 127.275 296.565L122.725 298.454L125.187 283.34L136.175 293.621L131.833 295.2L137.688 312.47L132.52 313.604ZM218.902 214.549C219.128 214.153 222.649 197.124 222.649 197.124L217.757 196.551L227.289 184.569L231.849 198.906L227.294 198.162L223.965 216.085L218.902 214.549ZM87.2397 171.495C87.1811 171.045 79.7912 155.301 79.7912 155.301L75.5093 157.778L75.9475 142.472L88.1975 151.207L84.1091 153.347L92.212 169.675L87.2397 171.495Z" fill="#0CC2D3"/>
<path d="M59.6924 215.5C71.6008 215.5 81.2541 205.847 81.2541 193.938C81.2541 182.03 71.6008 172.376 59.6924 172.376C47.7839 172.376 38.1306 182.03 38.1306 193.938C38.1306 205.847 47.7839 215.5 59.6924 215.5Z" fill="#10393E"/>
<path d="M64.2325 236.531C75.9218 234.262 83.5607 222.946 81.2922 211.256C79.0247 199.566 67.7089 191.928 56.0185 194.196C44.3282 196.464 36.6893 207.78 38.9578 219.47C41.2263 231.16 52.5422 238.798 64.2325 236.531Z" fill="#164A51"/>
<path d="M73.7695 200.35C78.751 193.04 76.7109 182.971 69.2119 177.862C61.714 172.752 51.5967 174.537 46.6152 181.848C41.6337 189.157 43.6749 199.226 51.1728 204.335C58.6718 209.445 68.7891 207.661 73.7695 200.35Z" fill="#0C2F33"/>
<path fill-rule="evenodd" clip-rule="evenodd" d="M57.4763 178.293L62.4856 180.292L56.5072 195.274L51.498 193.275L57.4763 178.293ZM64.1595 180.962L69.1338 182.947L61.1626 202.921L56.1893 200.936L64.1595 180.962Z" fill="#164A51"/>
<path d="M51.1996 204.298C47.669 201.891 45.216 198.202 44.3618 194.015C43.5075 189.828 44.3192 185.473 46.6245 181.875L46.3508 182.254C43.8981 185.853 42.9755 190.279 43.7859 194.558C44.5964 198.837 47.0735 202.619 50.6723 205.072C54.2712 207.524 58.6969 208.447 62.976 207.636C67.2551 206.826 71.037 204.349 73.4897 200.75C73.5803 200.621 73.6605 200.488 73.7469 200.354C71.2416 203.817 67.4845 206.167 63.274 206.903C59.0635 207.64 54.7318 206.705 51.1996 204.298Z" fill="#15484F"/>
<path d="M-34.8272 65.9301C-31.2963 68.3374 -28.8432 72.0264 -27.9889 76.2135C-27.1346 80.4007 -27.9465 84.7559 -30.2521 88.3539C-30.1605 88.2305 -30.07 88.107 -29.9784 87.9733C-28.764 86.1913 -27.9125 84.1876 -27.4725 82.0766C-27.0324 79.9655 -27.0125 77.7885 -27.4139 75.6697C-27.8152 73.551 -28.6299 71.532 -29.8115 69.7281C-30.9931 67.9243 -32.5184 66.3708 -34.3004 65.1564C-36.0824 63.942 -38.0861 63.0905 -40.1971 62.6505C-42.3082 62.2105 -44.4852 62.1906 -46.604 62.5919C-48.7227 62.9932 -50.7416 63.8079 -52.5455 64.9895C-54.3494 66.1711 -55.9029 67.6965 -57.1173 69.4784C-57.2078 69.6122 -57.2881 69.7408 -57.3745 69.8745C-54.8689 66.412 -51.1119 64.0629 -46.9019 63.3264C-42.6918 62.5898 -38.3595 63.5239 -34.8272 65.9301ZM61.5854 -74.4228C65.3909 -82.8518 61.644 -92.7695 53.215 -96.5751C44.786 -100.382 34.8683 -96.6337 31.0617 -88.2047C27.2562 -79.7757 31.0041 -69.858 39.4331 -66.0514C47.8621 -62.2459 57.7798 -65.9938 61.5854 -74.4228Z" fill="#10393E"/>
<path d="M226.322 33.1954C226.322 33.1954 213.254 27.9958 184.231 57.0287C184.231 57.0287 154.016 83.0061 170.168 93.9207C183.912 103.209 202.05 89.9083 211.63 81.2005C217.105 76.0747 221.962 70.3265 226.103 64.0729C232.717 53.8456 236.654 40.3343 226.322 33.1954Z" fill="#1ADEF5"/>
<path opacity="0.4" d="M226.322 33.1954C226.322 33.1954 213.254 27.9958 184.231 57.0287C184.231 57.0287 154.016 83.0061 170.168 93.9207C183.912 103.209 202.05 89.9083 211.63 81.2005C217.105 76.0747 221.962 70.3265 226.103 64.0729C232.717 53.8456 236.654 40.3343 226.322 33.1954Z" fill="#225B62"/>
<path d="M225.331 32.824C225.331 32.824 209.129 23.8549 180.058 52.8878C180.058 52.8878 151.987 82.8116 169.096 92.1861C180.815 98.61 197.891 85.7664 207.47 77.0596C212.502 72.4989 219.27 65.3497 222.968 59.6316C229.597 49.3991 233.257 37.8713 225.331 32.824Z" fill="#225B62"/>
<path d="M80.177 -15.1955C80.1319 -15.2312 80.0918 -15.2727 80.0576 -15.3189L79.7521 -15.6718C79.4237 -16.0784 79.106 -16.4934 78.7994 -16.9167C78.3147 -17.4885 77.8912 -18.1095 77.536 -18.7696C78.0873 -18.2614 78.5769 -17.6903 78.9949 -17.0679C79.714 -16.1008 80.2767 -15.2469 80.177 -15.1955ZM73.1502 -15.1975C73.1122 -15.226 73.0782 -15.2596 73.0494 -15.2973L72.7973 -15.5885C72.5926 -15.8354 72.321 -16.1883 72.0103 -16.5792C71.614 -17.035 71.278 -17.5398 71.0103 -18.0813C71.4722 -17.6914 71.8755 -17.2377 72.2058 -16.7315C72.8066 -15.9455 73.2541 -15.25 73.1502 -15.1975ZM85.9444 -16.6934C85.3592 -17.2747 84.8339 -17.9134 84.3765 -18.5998C83.8548 -19.235 83.3984 -19.9213 83.0144 -20.6482C83.5957 -20.0651 84.1191 -19.427 84.5772 -18.7428C85.0995 -18.1065 85.5574 -17.42 85.9444 -16.6934ZM91.2706 -19.0412C90.6492 -19.665 90.0907 -20.3483 89.6029 -21.0813C89.0446 -21.7628 88.5514 -22.4951 88.1296 -23.2685C88.7495 -22.6434 89.3082 -21.9606 89.7984 -21.2294C90.3539 -20.5463 90.8467 -19.8138 91.2706 -19.0412ZM96.7726 -22.5268C96.1517 -23.1523 95.5916 -23.8354 95.0998 -24.5669C94.5413 -25.2486 94.0497 -25.9824 93.6317 -26.7582C94.249 -26.1307 94.8076 -25.4455 95.2994 -24.715C95.8568 -24.0325 96.35 -23.3 96.7726 -22.5268ZM101.719 -26.2191C101.097 -26.8439 100.537 -27.5271 100.046 -28.2593C99.489 -28.9404 98.9974 -29.6727 98.5782 -30.4465C99.1965 -29.8197 99.7551 -29.1367 100.247 -28.4064C100.804 -27.7242 101.297 -26.992 101.719 -26.2191ZM106.654 -29.9126C106.032 -30.5367 105.472 -31.2196 104.981 -31.9517C104.424 -32.6331 103.933 -33.3658 103.513 -34.1399C104.132 -33.5131 104.69 -32.8301 105.182 -32.0998C105.738 -31.4167 106.23 -30.6842 106.654 -29.9126ZM110.97 -34.4599C110.35 -35.0845 109.791 -35.7673 109.301 -36.499C108.743 -37.1794 108.252 -37.9122 107.834 -38.6872C108.452 -38.0597 109.01 -37.3776 109.502 -36.6471C110.056 -35.9638 110.548 -35.2317 110.97 -34.4599ZM115.185 -39.1214C114.569 -39.7492 114.011 -40.4317 113.517 -41.1605C112.958 -41.8414 112.466 -42.5753 112.049 -43.3519C112.667 -42.7243 113.225 -42.0391 113.718 -41.3076C114.277 -40.6286 114.767 -39.8961 115.185 -39.1214ZM119.309 -43.9095C118.691 -44.5363 118.132 -45.2193 117.641 -45.9496C117.083 -46.6305 116.592 -47.3628 116.173 -48.1368C116.791 -47.5093 117.35 -46.8272 117.841 -46.0967C118.398 -45.4167 118.89 -44.6842 119.309 -43.9095ZM122.902 -49C122.276 -49.6239 121.711 -50.3067 121.215 -51.0391C120.671 -51.7216 120.192 -52.4539 119.786 -53.2263C120.403 -52.5998 120.962 -51.9167 121.454 -51.1872C122.001 -50.5032 122.486 -49.7712 122.902 -49ZM126.041 -54.8827C125.42 -55.5092 124.859 -56.1938 124.368 -56.927C123.81 -57.6071 123.318 -58.3395 122.9 -59.1142C123.516 -58.4866 124.075 -57.8035 124.568 -57.0741C125.126 -56.3911 125.619 -55.6575 126.041 -54.8827ZM127.837 -61.2233C127.277 -61.7741 126.774 -62.3808 126.336 -63.034C125.831 -63.6395 125.393 -64.298 125.03 -64.9979C125.589 -64.4451 126.091 -63.8367 126.527 -63.1821C127.033 -62.5781 127.472 -61.9214 127.837 -61.2233ZM128.633 -67.5093C128.07 -68.0587 127.567 -68.6656 127.131 -69.32C126.633 -69.9279 126.197 -70.5841 125.83 -71.2788C126.395 -70.7318 126.898 -70.1246 127.331 -69.4681C127.831 -68.8611 128.267 -68.2058 128.633 -67.5093ZM-65.1255 -0.471199C-65.1255 -0.471199 -58.678 -5.66564 -37.2654 5.62859C-37.2654 5.62859 -15.7243 15.0072 -22.9249 23.9671C-29.0494 31.5926 -41.5833 27.2551 -48.4938 24.0154C-52.4717 22.074 -56.2093 19.6747 -59.6306 16.8663C-65.1255 12.2767 -69.7202 5.35184 -65.1255 -0.471199Z" fill="#1ADEF5"/>
<path d="M210.502 242.466C226.704 226.266 226.704 199.998 210.502 183.796C194.3 167.596 168.034 167.596 151.832 183.796C135.632 199.998 135.632 226.266 151.832 242.466C168.034 258.668 194.3 258.668 210.502 242.466Z" fill="#1ADEF5"/>
<path d="M141.394 198.909C133.21 199.704 125.038 197.276 118.616 192.141C112.193 187.006 108.026 179.569 107.001 171.411C107.001 171.711 107.034 172.011 107.063 172.312C107.874 180.653 111.966 188.331 118.438 193.656C124.91 198.981 133.231 201.518 141.573 200.708C145.704 200.307 149.715 199.096 153.378 197.145C157.041 195.193 160.283 192.539 162.92 189.334C165.557 186.13 167.537 182.437 168.747 178.467C169.956 174.497 170.372 170.327 169.97 166.197C169.936 165.897 169.893 165.601 169.86 165.302C170.423 173.507 167.765 181.608 162.449 187.884C157.134 194.159 149.58 198.114 141.394 198.909Z" fill="#15484F"/>
<path d="M132.715 213.749C131.747 212.388 130.917 210.933 130.237 209.407C131.203 210.77 132.033 212.224 132.715 213.749ZM125.887 211.571C125.387 210.944 124.952 210.267 124.591 209.55C124.158 208.875 123.797 208.156 123.513 207.405C124.451 208.707 125.25 210.103 125.896 211.571H125.887ZM119.63 208.573C119.132 207.945 118.699 207.268 118.337 206.552C117.904 205.877 117.542 205.158 117.256 204.407C117.756 205.035 118.19 205.712 118.552 206.428C118.985 207.104 119.346 207.823 119.63 208.573ZM139.907 214.629C139.392 213.971 138.941 213.263 138.564 212.518C138.113 211.814 137.735 211.067 137.434 210.287C137.951 210.943 138.401 211.648 138.778 212.394C139.23 213.098 139.608 213.847 139.907 214.629ZM146.619 214.259C145.653 212.897 144.824 211.443 144.142 209.918C145.11 211.279 145.94 212.733 146.619 214.259ZM153.194 212.824C152.677 212.168 152.225 211.463 151.846 210.718C151.399 210.011 151.021 209.262 150.716 208.483C151.235 209.14 151.687 209.847 152.065 210.594C152.512 211.299 152.891 212.046 153.194 212.824ZM159.211 210.622C158.692 209.965 158.241 209.257 157.862 208.51C157.416 207.805 157.037 207.058 156.733 206.281C157.252 206.935 157.704 207.641 158.081 208.387C158.528 209.095 158.906 209.843 159.211 210.622ZM164.958 207.253C164.441 206.595 163.989 205.888 163.609 205.142C163.162 204.435 162.784 203.686 162.479 202.906C162.998 203.564 163.45 204.271 163.828 205.017C164.276 205.724 164.654 206.473 164.958 207.253ZM169.933 203.126C169.416 202.468 168.964 201.761 168.584 201.014C168.137 200.307 167.759 199.559 167.455 198.78C167.973 199.436 168.425 200.144 168.803 200.891C169.251 201.598 169.63 202.346 169.933 203.126ZM173.887 198.791C173.372 198.132 172.921 197.425 172.542 196.68C172.091 195.975 171.713 195.227 171.414 194.445C171.929 195.103 172.38 195.811 172.757 196.557C173.21 197.26 173.588 198.009 173.887 198.791ZM177.485 193.776C176.519 192.411 175.689 190.956 175.006 189.43C175.524 190.087 175.975 190.795 176.355 191.541C176.803 192.247 177.182 192.996 177.485 193.776ZM180.418 188.087C179.899 187.43 179.447 186.723 179.069 185.976C178.621 185.269 178.243 184.521 177.939 183.741C178.457 184.399 178.908 185.106 179.288 185.852C179.736 186.56 180.113 187.308 180.418 188.087ZM182.275 181.7C181.756 181.042 181.304 180.335 180.926 179.587C180.477 178.878 180.099 178.127 179.796 177.344C180.314 178.001 180.765 178.709 181.145 179.455C181.593 180.165 181.97 180.917 182.275 181.7ZM183.134 174.922C182.526 174.108 181.985 173.246 181.519 172.344C180.979 171.483 180.511 170.579 180.121 169.641C181.265 171.318 182.273 173.084 183.134 174.922ZM182.206 165.377C181.6 164.562 181.061 163.7 180.595 162.798C180.057 161.938 179.588 161.036 179.193 160.101C179.803 160.914 180.343 161.776 180.809 162.679C181.346 163.539 181.813 164.441 182.206 165.377Z" fill="#1ADEF5"/>
<g opacity="0.2">
</g>
</g>
</g>
<defs>
<clipPath id="clip0_2783_206">
<rect width="279" height="200" fill="white" transform="translate(0 -1)"/>
</clipPath>
<clipPath id="clip1_2783_206">
<rect width="246.914" height="250" fill="white" transform="translate(16.0432 -1)"/>
</clipPath>
</defs>
</svg>
