<svg width="224" height="180" viewBox="0 0 224 180" fill="none" xmlns="http://www.w3.org/2000/svg">
<path d="M144.278 -127.552C131.108 -130.201 118.039 -129.605 105.895 -126.326C115.155 -128.06 124.916 -128.091 134.75 -126.114C175.115 -117.993 201.379 -79.2963 193.41 -39.6851C185.439 -0.0727395 146.257 25.4575 105.891 17.3358C65.5576 9.22059 39.3068 -29.4205 47.2175 -69.001C46.5282 -66.6553 45.9306 -64.263 45.4393 -61.8222C36.2962 -16.377 65.7255 27.8758 111.171 37.0178C156.615 46.1604 200.869 16.7316 210.011 -28.7135C219.153 -74.1563 189.722 -118.41 144.278 -127.552Z" fill="#3F3A36"/>
<path d="M194.069 -96.6799C222.837 -48.9157 209.921 9.71782 160.71 29.1764C132.656 40.2142 114.053 38.1759 82.2367 25.2991C90.8159 30.834 100.556 34.8839 111.17 37.0185C156.615 46.1611 200.868 16.7323 210.01 -28.7129C215.012 -53.5763 208.467 -78.0844 194.069 -96.6799Z" fill="#544C47"/>
<path d="M55.8671 -5.30903C65.4791 4.30175 77.1299 12.5807 89.3074 20.009C65.0469 3.89091 51.6067 -25.4321 57.6116 -55.2835C65.5796 -94.8965 104.765 -120.424 145.129 -112.304C162.381 -108.833 177.046 -99.771 187.57 -87.4434C185.738 -95.1193 183.935 -102.837 181.411 -110.264C170.29 -120.958 156.099 -128.719 139.852 -131.988C94.4077 -141.13 50.1537 -111.701 41.0117 -66.2569C36.8802 -45.7248 40.6245 -25.438 50.1614 -8.52009C52.2162 -8.03299 54.1611 -7.01506 55.8671 -5.30903Z" fill="#68615D"/>
<path opacity="0.5" d="M190.978 -40.1733C183.273 -1.8768 145.393 22.8022 106.369 14.9524C67.3464 7.10206 41.9581 -30.3077 49.6612 -68.6024C57.3656 -106.898 95.2465 -131.578 134.269 -123.728C173.293 -115.878 198.683 -78.468 190.978 -40.1733Z" fill="#B5DBEA"/>
<path opacity="0.3" d="M139.852 -131.988C94.4083 -141.13 50.1543 -111.7 41.0123 -66.2562C36.8808 -45.7241 40.6251 -25.4373 50.162 -8.51947C52.2162 -8.03296 54.1617 -7.01443 55.8677 -5.3084C65.4797 4.30238 77.1305 12.5813 89.308 20.0096C76.4081 11.4392 66.5685 -0.865373 61.0839 -14.996C45.894 -38.7374 47.8293 -74.1964 66.8671 -95.0915C77.4006 -107.323 90.8615 -116.274 106.731 -119.361C135.076 -123.804 162.41 -115.335 184.735 -99.0078C183.744 -102.804 182.667 -106.569 181.412 -110.262C170.291 -120.957 156.099 -128.719 139.852 -131.988Z" fill="#68615D"/>
<path opacity="0.5" d="M154.32 -116.554C148.179 -119.827 141.458 -122.282 134.27 -123.728C95.2471 -131.579 57.3662 -106.899 49.6618 -68.6031C41.9581 -30.3078 67.3464 7.102 106.369 14.9518C114.355 16.5573 122.286 16.7802 129.926 15.8243C122.178 -30.1677 127.5 -77.6576 154.32 -116.554Z" fill="url(#paint0_radial_3115_27)"/>
<path d="M105.457 19.4911C63.968 11.1436 36.8814 -28.7874 45.0769 -69.5265C53.2725 -110.263 93.693 -136.616 135.183 -128.268C176.672 -119.921 203.758 -79.9885 195.564 -39.2506C187.368 1.48611 146.948 27.8374 105.457 19.4911ZM134.316 -123.958C95.2039 -131.826 57.1049 -107.02 49.387 -68.6581C41.6702 -30.299 67.2116 7.31241 106.325 15.1805C145.437 23.0498 183.536 -1.75689 191.253 -40.1172C198.971 -78.4788 173.428 -116.09 134.316 -123.958Z" fill="#908F93"/>
<path d="M103.721 28.1176C58.2257 18.9668 28.6586 -25.4912 37.8101 -70.986C46.9645 -116.483 91.4242 -146.049 136.918 -136.896C182.414 -127.743 211.981 -83.2847 202.828 -37.7887C193.676 7.70496 149.217 37.2721 103.721 28.1176ZM135.185 -128.275C94.4438 -136.471 54.6286 -109.994 46.4325 -69.2528C38.2369 -28.5113 64.7141 11.3032 105.456 19.5C146.198 27.6956 186.012 1.21836 194.207 -39.5231C202.404 -80.2663 175.926 -120.079 135.185 -128.275Z" fill="#AEADB3"/>
<g opacity="0.4">
<path d="M181.096 -98.8932C193.166 -82.3974 198.548 -61.0933 194.207 -39.5243C186.012 1.21714 146.198 27.6944 105.456 19.4988C83.9699 15.1764 66.4597 2.05596 55.9025 -15.3526C71.7794 14.3192 104.547 31.1673 138.473 21.563C164.177 14.1761 187.992 -1.66231 196.13 -28.7265C203.061 -52.6879 197.552 -80.8067 181.096 -98.8932Z" fill="#F2F2F4"/>
<path d="M56.1863 -104.417C77.773 -131.466 117.963 -139.525 151.062 -130.175C156.544 -128.605 161.829 -126.69 166.915 -124.467C158.071 -130.362 147.966 -134.673 136.918 -136.897C91.4242 -146.049 46.9645 -116.483 37.8107 -70.9867C32.2941 -43.5589 40.8545 -16.5112 58.4882 2.65358C36.3689 -28.9961 30.999 -73.9619 56.1863 -104.417Z" fill="#F2F2F4"/>
</g>
<path opacity="0.3" d="M164.761 -38.5535C160.765 -27.7599 155.457 -17.3611 149.541 -7.6386C151.303 -6.98539 153.06 -6.3375 154.793 -5.70261C156.832 -4.95186 158.901 -4.18516 160.981 -3.41786C166.555 -10.8887 172.179 -18.6462 175.953 -27.5009C177.101 -30.1889 178.051 -33.0979 178.827 -36.2924C174.13 -37.0089 169.433 -37.7312 164.761 -38.5535Z" fill="white"/>
<path d="M215.246 145.238L213.053 151.673L219.77 159.9L240.533 150.325L248.126 143.78L248.516 137.215L242.579 132.348L228.416 137.723L215.246 145.238Z" fill="#9C9CA0"/>
<path d="M230.055 163.764C235.05 170.151 242.985 166.365 245.923 160.678C249.804 154.447 247.101 146.902 242.961 141.567C240.339 143.71 237.597 145.55 234.478 147.272C235.236 153.515 226.881 157.901 230.055 163.764Z" fill="#A6A5AA"/>
<path d="M252.834 146.165C252.277 144.69 251.527 143.3 250.734 141.841C250.093 140.661 249.432 139.443 248.889 138.17C248.759 137.883 248.642 137.563 248.516 137.215C248.126 136.167 247.682 134.984 246.964 134.409C246.431 133.98 245.969 134.002 245.327 134.033C245.117 134.047 244.893 134.054 244.651 134.051L246.734 137.69L246.085 138.823C245.051 139.795 244.014 140.706 242.96 141.567C247.101 146.901 249.803 154.446 245.922 160.677C242.984 166.364 235.048 170.149 230.054 163.763C226.881 157.9 235.237 153.514 234.478 147.272C234.048 147.507 233.621 147.743 233.177 147.978C227.861 150.756 223.036 152.413 217.414 154.053L217.224 154.06L215.652 153.807L215.547 153.616L213.779 150.184C212.638 151.579 212.64 152.736 213.59 154.648C214.071 155.607 214.522 156.567 214.967 157.526C215.683 159.052 216.413 160.634 217.233 162.127C220.036 167.238 223.167 170.712 229.408 171.115C233.351 171.362 238.419 171.313 242.664 168.669C247.173 166.456 248.31 164.82 251.052 160.86L251.832 159.743C254.506 155.911 254.843 151.466 252.834 146.165Z" fill="#908F93"/>
<path d="M231.282 144.278C230.961 143.793 230.445 143.271 229.814 142.818C227.511 144.085 225.233 145.219 223.145 146.21C222.67 146.438 222.179 146.633 221.692 146.835C221.664 147.129 221.653 147.421 221.621 147.717C221.652 147.421 221.664 147.128 221.692 146.835C220.693 147.247 219.684 147.639 218.693 148.008C217.849 148.319 216.997 148.632 216.169 148.97C216.031 149.022 215.896 149.074 215.747 149.146C215.345 149.315 214.912 149.506 214.478 149.616L216.224 153.016L217.266 153.181C221.997 151.8 226.167 150.397 230.537 148.309C231.459 147.098 231.591 145.413 231.282 144.278Z" fill="#908F93"/>
<path d="M166.79 57.1226L213.352 147.442C216.273 146.35 219.114 145.194 221.872 143.944C223.645 108.399 197.079 78.8252 180.712 48.2774C175.967 51.0504 171.266 53.9842 166.79 57.1226Z" fill="#32353A"/>
<path d="M185.567 45.5008C183.948 46.4105 182.328 47.3327 180.711 48.2773C197.079 78.8252 223.644 108.399 221.871 143.944C226.688 141.763 231.262 139.302 235.619 136.46C221.676 104.318 202.83 75.4356 185.567 45.5008Z" fill="#4B4F56"/>
<path d="M242.279 131.671L191.216 42.3854C189.343 43.398 187.455 44.4402 185.568 45.5007C202.831 75.4355 221.677 104.318 235.621 136.46C237.897 134.974 240.116 133.387 242.279 131.671Z" fill="#32353A"/>
<path d="M242.279 131.671C240.116 133.387 237.897 134.974 235.62 136.46C231.263 139.302 226.69 141.764 221.872 143.944C219.114 145.194 216.273 146.35 213.352 147.442L213.992 148.685C214.006 148.659 214.026 148.647 214.049 148.624L214.198 148.777C214.582 148.693 215.005 148.51 215.398 148.338C215.556 148.272 215.701 148.21 215.839 148.149C216.681 147.807 217.531 147.494 218.394 147.184C219.514 146.765 220.655 146.321 221.771 145.843C222.102 145.7 222.442 145.569 222.766 145.417C226.534 143.629 230.931 141.429 234.936 138.689L235.177 138.524C235.52 138.289 235.868 138.052 236.214 137.812C237.6 136.858 238.997 135.87 240.297 134.827C240.716 134.49 241.091 134.1 241.485 133.694C241.88 133.289 242.298 132.861 242.75 132.494L242.279 131.671Z" fill="#1E2123"/>
<path d="M184.32 43.3436C184.732 44.0642 185.152 44.7818 185.568 45.5013C187.455 44.4407 189.342 43.3986 191.215 42.3859L189.05 38.5997C188.995 38.6523 188.932 38.6931 188.871 38.7339C186.512 40.3849 183.939 41.8427 181.46 43.2443C180.013 44.0666 178.525 44.9054 177.104 45.7667C175.61 46.6853 174.093 47.6737 172.626 48.6331C170.116 50.2741 167.555 51.9559 164.862 53.3865L166.789 57.1237C171.264 53.9853 175.966 51.0515 180.711 48.2784C180.475 47.8404 180.234 47.4012 180.004 46.9614C180.234 47.4006 180.475 47.8398 180.711 48.2784C182.328 47.3332 183.948 46.4116 185.568 45.5013C185.152 44.7807 184.732 44.0642 184.32 43.3436Z" fill="#1E2123"/>
<path d="M214.412 149.494L214.055 148.813C214.102 148.804 214.149 148.796 214.197 148.778" fill="#908F93"/>
<path d="M214.412 149.494L214.478 149.616C214.389 149.643 214.316 149.655 214.241 149.675C214.289 149.615 214.347 149.554 214.412 149.494Z" fill="#908F93"/>
<path d="M214.049 148.624L214.198 148.777C214.149 148.796 214.103 148.804 214.056 148.813L213.993 148.685C214.007 148.658 214.026 148.646 214.049 148.624Z" fill="#908F93"/>
<path d="M213.825 148.838C213.874 148.786 213.93 148.734 213.993 148.684L213.825 148.838Z" fill="#908F93"/>
<path d="M213.825 148.837C213.805 148.851 213.794 148.867 213.792 148.876L213.79 148.84C213.799 148.842 213.816 148.837 213.825 148.837Z" fill="#908F93"/>
<path d="M157.399 30.2587L164.328 43.0208C166.48 41.3846 168.623 39.8541 170.787 38.4241C168.861 34.8708 167.337 31.075 165.792 27.1948C163.13 28.4167 160.321 29.4204 157.399 30.2587Z" fill="#908F93"/>
<path d="M180.223 33.0148L174.303 22.0479C173.433 22.7419 172.528 23.3827 171.601 23.9945C173.392 27.5916 174.972 31.2455 176.608 34.8851C177.795 34.2278 179.001 33.6065 180.223 33.0148Z" fill="#908F93"/>
<path d="M173.395 20.3677C172.64 21.0227 171.753 21.6836 170.775 22.3404C169.108 23.457 167.175 24.5625 165.155 25.594C162.404 27.0033 159.495 28.2855 156.883 29.3028L157.399 30.2587C160.32 29.4216 163.13 28.4167 165.792 27.1954C167.82 26.2644 169.764 25.2121 171.602 23.995C172.528 23.3837 173.433 22.7417 174.304 22.0483L173.395 20.3677Z" fill="#6A696D"/>
<path d="M176.608 34.8857C174.973 31.2454 173.392 27.5916 171.602 23.9951C169.765 25.2116 167.82 26.2645 165.792 27.1955C167.337 31.0758 168.862 34.8715 170.787 38.4248C172.701 37.1622 174.633 35.9769 176.608 34.8857Z" fill="#A6A5AA"/>
<path d="M180.223 33.0146C179.001 33.607 177.794 34.2283 176.607 34.8856C174.631 35.9769 172.7 37.1621 170.786 38.4242C168.621 39.8542 166.478 41.3846 164.327 43.0209L164.765 43.8308L171.81 40.2266L177.666 37.2319L181.453 35.2935L180.223 33.0146Z" fill="#6A696D"/>
<path d="M172.055 39.0993C159.942 45.6308 160.263 48.8963 163.902 54.1846L177.172 46.3011C176.867 43.1007 175.709 39.9972 172.055 39.0993Z" fill="#908F93"/>
<path d="M177.039 36.5202C175.755 37.1533 174.313 37.8964 172.685 38.7595C172.469 38.8741 172.265 38.9876 172.055 39.0994C175.71 39.9973 176.867 43.1008 177.172 46.3012L181.855 43.5187C180.781 40.6564 180.156 37.3466 177.039 36.5202Z" fill="#A6A5AA"/>
<path d="M177.039 36.5202C180.156 37.3466 180.781 40.6564 181.855 43.5187L190.216 38.5508C187.233 33.2459 185.963 32.1334 177.039 36.5202Z" fill="#908F93"/>
<path opacity="0.2" d="M219.554 153.414C218.855 153.63 218.14 153.843 217.414 154.053L217.224 154.06L215.652 153.807L215.547 153.617L213.779 150.184C212.638 151.579 212.64 152.736 213.59 154.649C214.071 155.607 214.522 156.567 214.967 157.526C215.683 159.053 216.413 160.635 217.233 162.127C220.037 167.238 223.167 170.712 229.408 171.115C231.417 171.241 233.716 171.288 236.051 170.956C228.487 168.152 222.381 161.457 219.554 153.414Z" fill="#211915"/>
<path opacity="0.2" d="M218.693 148.008C217.849 148.319 216.997 148.632 216.169 148.97C216.031 149.022 215.896 149.074 215.747 149.146C215.345 149.315 214.912 149.506 214.478 149.616L216.224 153.016L217.266 153.181C218.916 152.7 220.492 152.212 222.036 151.699C221.364 150.243 220.914 148.76 220.96 147.146C220.203 147.447 219.442 147.728 218.693 148.008Z" fill="#211915"/>
<path opacity="0.3" d="M165.168 53.9092L213.985 148.346C213.998 148.322 216.948 146.923 217.809 146.612C219.118 146.124 220.594 145.882 221.885 145.301C204.365 113.49 188.705 82.2041 170.92 50.4658C169.052 51.6723 167.146 52.8599 165.168 53.9092Z" fill="#211915"/>
<path opacity="0.1" d="M241.789 134.219C242.185 133.812 242.603 133.385 243.053 133.018L189.356 39.1241C189.299 39.1756 189.236 39.2164 189.175 39.2566C188.736 39.5681 188.28 39.8643 187.826 40.1587C202.713 73.6172 221.92 104.203 241.416 134.594C241.54 134.471 241.663 134.348 241.789 134.219Z" fill="#211915"/>
<path opacity="0.1" d="M175.14 23.5966L173.395 20.3678C172.92 20.781 172.386 21.1978 171.814 21.6122C168.504 24.0234 163.772 26.4217 159.421 28.2678C158.555 28.6338 157.704 28.9837 156.882 29.3023L158.495 32.274L164.767 43.8296L166.9 42.7401C164.959 38.7624 163.125 34.69 160.981 30.8937C165.141 28.687 169.428 26.8249 173.503 24.5448C175.668 28.3169 177.845 32.1558 180.084 35.9946L181.454 35.2924L175.14 23.5966Z" fill="#211915"/>
<path opacity="0.1" d="M188.27 35.5193C187.271 34.314 186.196 33.7359 184.588 33.8299C182.248 33.9664 178.775 35.5329 172.685 38.7594C166.847 41.854 163.74 44.2197 162.441 46.3892C161.657 47.6998 161.529 48.94 161.858 50.2252C162.175 51.4671 162.916 52.7517 163.901 54.1852L166.044 52.9113C164.821 51.6527 163.692 50.3647 163.03 48.8472C168.733 42.5007 177.014 38.4437 185.517 36.1926C185.97 37.6758 186.243 39.227 186.454 40.7864L190.216 38.5513C189.512 37.3004 188.906 36.2884 188.27 35.5193Z" fill="#211915"/>
<defs>
<radialGradient id="paint0_radial_3115_27" cx="0" cy="0" r="1" gradientUnits="userSpaceOnUse" gradientTransform="translate(125.042 -57.5085) rotate(-170.012) scale(92.9718 155.214)">
<stop offset="0.1452" stop-color="white"/>
<stop offset="1" stop-color="#5982BD" stop-opacity="0"/>
</radialGradient>
</defs>
</svg>
