<svg width="236" height="236" viewBox="0 0 236 236" fill="none" xmlns="http://www.w3.org/2000/svg">
<g clip-path="url(#clip0_1_2294)">
<g clip-path="url(#clip1_1_2294)">
<g clip-path="url(#clip2_1_2294)">
<path opacity="0.1" d="M205.972 163.921H211.537V166.709H205.972V168.836H211.537V171.613H205.972V173.75H211.537V176.527H205.972V178.655H211.537V181.442H205.972V183.57H211.537V186.356H205.972V187.903H180.443V186.356H174.879V183.57H180.443V181.442H174.879V178.655H180.443V176.527H174.879V173.75H180.443V171.613H174.879V168.836H180.443V166.709H174.879V163.921H180.443V162.374H205.972V163.921ZM205.972 133.951V136.079H211.537V138.866H205.972V140.993H211.537V143.78H205.972V145.908H211.537V148.695H205.972V150.822H211.537V153.599H205.972V155.146H180.443V153.599H174.879V150.822H180.443V148.695H174.879V145.908H180.443V143.78H174.879V140.993H180.443V138.866H174.879V136.079H180.443V133.951H174.879V131.174H180.443V129.628H205.972V131.174H211.537V133.951H205.972ZM60.5989 165.939V168.066H66.1736V170.853H60.5989V172.981H66.1736V175.768H60.5989V177.895H66.1736V180.673H60.5989V182.81H66.1736V185.588H60.5989V187.715H66.1736V190.502H60.5989V192.629H66.1736V195.417H60.5989V197.544H66.1736V200.331H60.5989V202.458H66.1736V205.236H60.5989V207.334H37.5028V205.236H31.9387V202.458H37.5028V200.331H31.9387V197.544H37.5028V195.417H31.9387V192.629H37.5028V190.502H31.9387V187.715H37.5028V185.588H31.9387V182.81H37.5028V180.673H31.9387V177.895H37.5028V175.768H31.9387V172.981H37.5028V170.853H31.9387V168.066H37.5028V165.939H31.9387V163.152H37.5028V161.054H45.9637C45.9788 161.87 46.3133 162.647 46.8953 163.218C47.4773 163.789 48.2603 164.109 49.0758 164.109C49.8914 164.109 50.6744 163.789 51.2564 163.218C51.8384 162.647 52.1729 161.87 52.1879 161.054H60.6382V163.152H66.2129V165.939H60.5989ZM205.972 37.7973V39.9245H211.537V42.7023H205.972V44.839H211.537V47.6168H205.972V49.743H211.537V52.5314H205.972V54.6575H211.537V57.4459H205.972V58.9916H180.443V57.4459H174.879V54.6586H180.443V52.5314H174.879V49.744H180.443V47.6168H174.879V44.839H180.443V42.7023H174.879V39.9245H180.443V37.7973H174.879V35.01H180.443V33.4653H205.972V35.011H211.537V37.7984L205.972 37.7973ZM128.932 44.6605V46.7887H134.497V49.575H128.932V51.7032H134.497V54.4895H128.932V56.6178H134.497V59.4041H128.932V61.5323H134.497V64.3197H128.932V66.4458H134.497V69.2236H128.932V71.3508H134.497V74.1381H128.932V76.2653H134.497V79.0527H128.932V81.1799H134.497V83.9672H128.932V86.0944H134.497V88.8817H128.932V91.01H134.497V93.7867H128.932V95.9235H134.497V98.7013H128.932V100.828H134.497V103.616H128.932V105.743H134.497V108.53H128.932V110.658H134.497V113.445H128.932V115.572H134.497V118.35H128.932V120.034H127.248V125.599H124.47V120.034H122.343V125.599H119.555V120.034H117.428V125.599H114.641V120.034H112.514V125.599H109.726V120.034H107.599V125.599H104.822V120.034H102.686V125.599H99.9067V120.034H97.7806V125.599H94.9932V120.034H92.865V125.599H90.0787V120.034H87.9505V125.599H85.1642V120.034H83.0359V125.599H80.2592V120.034H78.1224V125.599H75.3447V120.034H73.2175V125.599H70.4301V120.034H68.3019V125.599H65.5145V120.034H63.3873V125.599H60.6V120.034H58.4728V125.599H55.6854V120.034H53.5572V125.599H50.7826V120.034H49.0987V118.35H43.5325V115.572H49.0976V113.445H43.5325V110.658H49.0976V108.53H43.5325V105.743H49.0976V103.617H43.5325V100.828H49.0976V98.7023H43.5325V95.9245H49.0976V93.7878H43.5325V91.0089H49.0976V88.8828H43.5325V86.0944H49.0976V83.9683H43.5325V81.1799H49.0976V79.0537H43.5325V76.2642H49.0976V74.1381H43.5325V71.3497H49.0976V69.2236H43.5325V66.4458H49.0976V64.3175H43.5325V61.5313H49.0976V59.4041H43.5325V56.6188H49.0976V54.4906H43.5325V51.7043H49.0976V49.5761H43.5325V46.7898H49.0976V44.6594H43.5325V41.8848H49.0976V40.2009H50.7815V34.6347H53.5593V40.1998H55.6854V34.6347H58.4738V40.1998H60.6V34.6347H63.3884V40.1998H65.5145V34.6347H68.3029V40.1998H70.429V34.6347H73.2175V40.1998H75.3436V34.6347H78.1214V40.1998H80.2581V34.6347H83.0359V40.1998H85.1642V34.6347H87.9505V40.1998H90.0787V34.6347H92.865V40.1998H94.9932V34.6347H97.7795V40.1998H99.9078V34.6347H102.685V40.1998H104.821V34.6347H107.599V40.1998H109.726V34.6347H112.514V40.1998H114.641V34.6347H117.428V40.1998H119.555V34.6347H122.343V40.1998H124.47V34.6347H127.248V40.1998H128.932V41.8837H134.497V44.6605H128.932Z" fill="white"/>
<g filter="url(#filter0_i_1_2294)">
<path d="M125.821 39.2153H50.2394C49.6755 39.2153 49.1347 39.4393 48.736 39.8381C48.3373 40.2368 48.1133 40.7776 48.1133 41.3415V116.923C48.1133 117.487 48.3373 118.028 48.736 118.427C49.1347 118.825 49.6755 119.049 50.2394 119.049H125.821C126.385 119.049 126.926 118.825 127.324 118.427C127.723 118.028 127.947 117.487 127.947 116.923V41.3415C127.947 40.7776 127.723 40.2368 127.324 39.8381C126.926 39.4393 126.385 39.2153 125.821 39.2153Z" fill="#10393E"/>
</g>
<path d="M50.2393 39.4812H125.821C126.849 39.4812 127.681 40.3136 127.681 41.3416V116.923C127.681 117.417 127.485 117.89 127.136 118.239C126.788 118.588 126.314 118.784 125.821 118.784H50.2393C49.7459 118.784 49.2727 118.588 48.9238 118.239C48.5749 117.89 48.3789 117.417 48.3789 116.923V41.3416C48.3789 40.3136 49.2113 39.4812 50.2393 39.4812Z" stroke="#1ADEF5" stroke-width="0.531532"/>
<path d="M52.5737 119.05H49.7864V124.615H52.5737V119.05ZM57.4904 119.048H54.703V124.613H57.4904V119.048ZM62.4028 119.048H59.6154V124.613H62.4028V119.048ZM67.3195 119.048H64.5321V124.613H67.3195V119.048ZM72.2319 119.05H69.4445V124.615H72.2319V119.05ZM77.1358 119.05H74.3506V124.615H77.1368L77.1358 119.05ZM82.0482 119.05H79.2619V124.615H82.0482V119.05ZM86.9649 119.05H84.1786V124.615H86.9649V119.05ZM91.8815 119.05H89.0952V124.615H91.8815V119.05ZM96.795 119.048H94.0066V124.613H96.794L96.795 119.048ZM101.695 119.05H98.9073V124.615H101.695V119.05ZM106.616 119.05H103.828V124.615H106.616V119.05ZM111.532 119.05H108.745V124.615H111.532V119.05ZM116.44 119.05H113.653V124.615H116.44V119.05ZM121.357 119.05H118.57V124.615H121.357V119.05ZM126.265 119.048H123.478V124.613H126.265V119.048ZM48.1131 43.6855V40.8992H42.548V43.6855H48.1131ZM48.1131 48.6011V45.8137H42.548V48.6011H48.1131ZM48.1131 53.5071V50.7187H42.548V53.506L48.1131 53.5071ZM48.1131 58.4195V55.6322H42.548V58.4195H48.1131ZM48.1046 63.3362V60.5488H42.5405V63.3362H48.1046ZM48.1131 68.2507V65.4634H42.548V68.2507H48.1131ZM48.1131 73.1631V70.3758H42.548V73.1631H48.1131ZM48.1131 78.067V75.2797H42.548V78.067H48.1131ZM48.1131 82.9837V80.1974H42.548V82.9848L48.1131 82.9837ZM48.1046 87.8961V85.1098H42.5405V87.8961H48.1046ZM48.1131 92.8128V90.0265H42.548V92.8128H48.1131ZM48.1131 97.7273V94.9421H42.548V97.7284L48.1131 97.7273ZM48.1131 102.642V99.8556H42.548V102.642H48.1131ZM48.1131 107.545V104.757H42.548V107.545H48.1131ZM48.1046 112.461V109.674H42.5405V112.461H48.1046ZM48.1131 117.374V114.586H42.548V117.374H48.1131ZM123.485 39.2153H126.273V33.6501H123.485V39.2153ZM118.557 39.2153H121.344V33.6501H118.557V39.2153ZM113.645 39.2153H116.431V33.6501H113.645V39.2153ZM108.744 39.2153H111.531V33.6501H108.744V39.2153ZM103.827 39.2153H106.615V33.6501H103.827V39.2153ZM98.9105 39.2153H101.698V33.6501H98.9105V39.2153ZM93.9938 39.2153H96.7812V33.6501H93.9938V39.2153ZM89.0857 39.2153H91.873V33.6501H89.0846L89.0857 39.2153ZM84.1818 39.2153H86.9691V33.6501H84.1818V39.2153ZM79.2651 39.2153H82.0525V33.6501H79.2651V39.2153ZM74.3484 39.2153H77.1358V33.6501H74.3484V39.2153ZM69.436 39.2153H72.2234V33.6501H69.436V39.2153ZM64.5236 39.2153H67.3099V33.6501H64.5236V39.2153ZM59.6059 39.2153H62.3932V33.6501H59.6069L59.6059 39.2153ZM54.702 39.2153H57.4893V33.6501H54.702V39.2153ZM49.7896 39.2153H52.5769V33.6501H49.7896V39.2153ZM127.934 114.579V117.366H133.498V114.579H127.934ZM127.95 109.662V112.45H133.515V109.662H127.95ZM127.95 104.758V107.546H133.515V104.758H127.95ZM127.95 99.8439V102.631H133.515V99.8439H127.95ZM127.934 94.9293V97.7167H133.498V94.9293H127.934ZM127.934 90.0169V92.8043H133.498V90.0169H127.934ZM127.95 85.1003V87.8876H133.515V85.1003H127.95ZM127.95 80.1964V82.9837H133.515V80.1964H127.95ZM127.95 75.2818V78.0681H133.515V75.2818H127.95ZM127.934 70.3673V73.1536H133.498V70.3673H127.934ZM127.934 65.4506V68.2369H133.498V65.4506H127.934ZM127.95 60.5393V63.3266H133.515V60.5393H127.95ZM127.95 55.6332V58.4206H133.515V55.6332H127.95ZM127.95 50.7187V53.506H133.515V50.7187H127.95ZM127.934 45.8041V48.5915H133.498V45.8041H127.934ZM127.934 40.8896V43.677H133.498V40.8896H127.934Z" fill="#225B62"/>
<path d="M139.119 42.7788H133.515V41.7944H138.715L150.869 29.6309L151.568 30.3304L139.119 42.7788Z" fill="#10393E"/>
<path d="M140.183 47.6964H133.515V46.711H139.779L156.965 29.5244L157.654 30.2239L140.183 47.6964ZM142.576 116.469H133.515V115.485H142.162L149.716 107.94H184.414V108.926H150.12L142.576 116.469Z" fill="#10393E"/>
<path d="M139.532 111.554H133.515V110.569H139.119L150.682 99.0168H184.414V100.001H151.086L139.532 111.554Z" fill="#10393E"/>
<path d="M164.149 105.339H150.41V111.524H164.149V105.339Z" fill="#1ADEF5"/>
<path opacity="0.2" d="M187.305 105.339H184.41V111.524H187.305V105.339ZM198.148 105.339H195.252V111.524H198.148V105.339Z" fill="white"/>
<path d="M164.149 96.4165H150.41V102.601H164.149V96.4165Z" fill="#1ADEF5"/>
<path opacity="0.2" d="M187.305 96.4165H184.41V102.601H187.305V96.4165ZM198.148 96.4165H195.252V102.601H198.148V96.4165Z" fill="white"/>
<path opacity="0.2" d="M16.2042 56.7251V52.5303H10.0193V56.7262L16.2042 56.7251ZM16.2042 72.4159V68.2211H10.0193V72.417L16.2042 72.4159Z" fill="white"/>
<path opacity="0.2" d="M16.2042 101.547V97.3511H10.0193V101.547H16.2042ZM16.2042 117.236V113.04H10.0193V117.236H16.2042Z" fill="white"/>
<path opacity="0.2" d="M187.305 87.504H184.41V93.6889H187.305V87.5029V87.504ZM198.148 87.504H195.252V93.6889H198.148V87.5029V87.504Z" fill="white"/>
<path opacity="0.2" d="M187.305 78.5815H184.41V84.7664H187.305V78.5815ZM198.148 78.5815H195.252V84.7664H198.148V78.5815Z" fill="white"/>
<path opacity="0.2" d="M187.305 69.6572H184.41V75.8432H187.305V69.6572ZM198.148 69.6572H195.252V75.8432H198.148V69.6572Z" fill="white"/>
<path d="M57.6445 160.07C58.732 160.07 59.6143 160.952 59.6143 162.039V204.39C59.6143 205.477 58.732 206.36 57.6445 206.36H38.4881C37.9658 206.359 37.4651 206.152 37.0959 205.782C36.7267 205.413 36.5193 204.912 36.5193 204.39V162.039C36.5193 160.952 37.4016 160.07 38.4881 160.07H44.9791C44.9783 160.686 45.1603 161.288 45.5022 161.8C45.8441 162.313 46.3304 162.712 46.8994 162.948C47.4685 163.183 48.0947 163.245 48.6988 163.124C49.3028 163.004 49.8574 162.706 50.2923 162.27C50.5813 161.981 50.8105 161.638 50.9668 161.26C51.1231 160.883 51.2035 160.478 51.2034 160.07H57.6455H57.6445Z" fill="#10393E"/>
<path d="M36.4811 164.957V162.169H30.917V164.957H36.4811ZM36.4768 169.871V167.084H30.9138V169.871H36.4768ZM36.4768 174.786V171.998H30.9138V174.786H36.4768ZM36.4768 179.7V176.913H30.9138V179.7H36.4768ZM36.4768 184.615V181.827H30.9138V184.615H36.4768ZM36.4811 189.516V186.729H30.917V189.516H36.4811ZM36.4768 194.433V191.646H30.9138V194.433H36.4768ZM36.4811 199.348V196.56H30.917V199.348H36.4811ZM36.4768 204.262V201.475H30.9138V204.262H36.4768ZM65.1763 164.957V162.169H59.6112V164.957H65.1763ZM65.1763 169.871V167.084H59.6112V169.871H65.1763ZM65.1763 174.786V171.998H59.6112V174.786H65.1763ZM65.188 179.687V176.9H59.624V179.687H65.188ZM65.188 184.604V181.817H59.624V184.604H65.188ZM65.1763 189.516V186.729H59.6112V189.516H65.1763ZM65.1763 194.433V191.646H59.6112V194.433H65.1763ZM65.1763 199.348V196.56H59.6112V199.348H65.1763ZM65.188 204.253V201.465H59.624V204.253H65.188Z" fill="#225B62"/>
<path d="M201.043 128.643H183.394C182.877 128.643 182.365 128.745 181.887 128.943C181.409 129.141 180.975 129.431 180.609 129.797C180.243 130.163 179.953 130.597 179.755 131.075C179.557 131.553 179.455 132.066 179.456 132.583V150.232C179.456 151.277 179.871 152.278 180.609 153.017C181.348 153.756 182.35 154.171 183.394 154.171H201.043C201.561 154.171 202.073 154.069 202.551 153.871C203.029 153.673 203.463 153.383 203.829 153.017C204.195 152.652 204.485 152.217 204.683 151.739C204.881 151.262 204.983 150.749 204.983 150.232V132.583C204.983 131.538 204.568 130.536 203.829 129.797C203.09 129.058 202.088 128.643 201.043 128.643Z" fill="#10393E"/>
<path d="M204.972 149.827V152.614H210.538V149.827H204.972ZM204.985 144.922V147.709H210.55V144.922H204.985ZM204.985 140.008V142.795H210.55V140.008H204.985ZM204.985 135.093V137.88H210.55V135.093H204.985ZM204.972 130.178V132.966H210.538V130.178H204.972ZM173.882 149.827V152.614H179.447V149.827H173.882ZM173.895 144.915V147.701H179.46V144.915H173.895ZM173.895 140.008V142.795H179.46V140.008H173.895ZM173.882 135.093V137.88H179.447V135.093H173.882ZM173.882 130.178V132.966H179.447V130.178H173.882Z" fill="#225B62"/>
<path d="M201.043 32.4797H183.394C182.35 32.48 181.348 32.8952 180.609 33.634C179.871 34.3728 179.456 35.3748 179.456 36.4194V54.0674C179.456 55.1121 179.871 56.114 180.609 56.8528C181.348 57.5916 182.35 58.0068 183.394 58.0071H201.043C202.088 58.0071 203.09 57.592 203.829 56.8532C204.568 56.1143 204.983 55.1122 204.983 54.0674V36.4194C204.983 35.3746 204.568 34.3725 203.829 33.6337C203.09 32.8948 202.088 32.4797 201.043 32.4797Z" fill="#10393E"/>
<path d="M204.985 53.6741V56.4604H210.55V53.6741H204.985ZM204.972 48.7585V51.5459H210.538V48.7585H204.972ZM204.972 43.844V46.6313H210.538V43.844H204.972ZM204.972 38.9294V41.7168H210.538V38.9294H204.972ZM204.985 34.0255V36.8129H210.55V34.0255H204.985ZM173.882 53.6741V56.4604H179.447V53.6741H173.882ZM173.882 48.7585V51.5459H179.447V48.7585H173.882ZM173.882 43.844V46.6313H179.447V43.844H173.882ZM173.882 38.9294V41.7168H179.447V38.9294H173.882ZM173.895 34.0149V36.8022H179.46V34.0149H173.895Z" fill="#225B62"/>
<path d="M201.043 161.39H183.394C182.35 161.39 181.348 161.805 180.609 162.544C179.871 163.283 179.456 164.285 179.456 165.33V182.979C179.455 183.496 179.557 184.008 179.755 184.486C179.953 184.964 180.243 185.398 180.609 185.764C180.975 186.13 181.409 186.42 181.887 186.618C182.365 186.816 182.877 186.918 183.394 186.918H201.043C202.088 186.918 203.09 186.503 203.829 185.764C204.568 185.026 204.983 184.023 204.983 182.979V165.33C204.983 164.285 204.568 163.283 203.829 162.544C203.09 161.805 202.088 161.39 201.043 161.39Z" fill="#10393E"/>
<path d="M204.985 182.586V185.374H210.55V182.586H204.985ZM204.985 177.67V180.457H210.55V177.67H204.985ZM204.972 172.757V175.545H210.538V172.757H204.972ZM204.972 167.841V170.628H210.538V167.841H204.972ZM204.985 162.926V165.713H210.55V162.926H204.985ZM173.895 182.586V185.374H179.46V182.586H173.895ZM173.882 177.67V180.457H179.447V177.67H173.882ZM173.882 172.757V175.545H179.447V172.757H173.882ZM173.882 167.841V170.628H179.447V167.841H173.882ZM173.895 162.926V165.713H179.46V162.926H173.895Z" fill="#225B62"/>
<path d="M136.361 106.533H133.515V105.547H135.957L151.4 90.0947H184.414V91.0801H151.814L136.361 106.533ZM140.961 82.3524H133.515V81.3669H140.557L149.657 72.2565H184.414V73.2419H150.07L140.961 82.3524ZM141.926 92.2314H133.515V91.246H141.522L151.4 81.368H184.414V82.3534H151.814L141.926 92.2314ZM152.053 30.7056C151.686 30.7075 151.327 30.6002 151.021 30.3975C150.715 30.1947 150.476 29.9056 150.334 29.5668C150.193 29.2281 150.156 28.8549 150.227 28.4948C150.298 28.1347 150.475 27.8038 150.734 27.5443C150.994 27.2847 151.324 27.1082 151.685 27.037C152.045 26.9659 152.418 27.0033 152.757 27.1447C153.095 27.286 153.384 27.5249 153.587 27.8309C153.79 28.1369 153.897 28.4962 153.895 28.8633C153.896 29.1053 153.848 29.3449 153.755 29.5685C153.663 29.792 153.527 29.9952 153.356 30.1663C153.185 30.3374 152.982 30.4731 152.758 30.5656C152.535 30.6582 152.295 30.7057 152.053 30.7056ZM152.053 27.9969C151.881 27.995 151.713 28.0442 151.569 28.1382C151.425 28.2323 151.313 28.3669 151.246 28.5251C151.179 28.6832 151.16 28.8577 151.193 29.0264C151.225 29.1951 151.307 29.3503 151.427 29.4725C151.548 29.5946 151.703 29.6781 151.871 29.7123C152.039 29.7465 152.214 29.7299 152.373 29.6646C152.532 29.5993 152.668 29.4883 152.763 29.3456C152.859 29.2029 152.91 29.035 152.91 28.8633C152.911 28.6927 152.862 28.5255 152.769 28.383C152.675 28.2405 152.541 28.129 152.384 28.0628C152.279 28.0192 152.167 27.9968 152.053 27.9969ZM158.147 30.7938C157.658 30.7938 157.189 30.5997 156.844 30.2542C156.498 29.9087 156.304 29.4401 156.304 28.9515C156.304 28.4629 156.498 27.9943 156.844 27.6488C157.189 27.3033 157.658 27.1092 158.147 27.1092C158.635 27.1092 159.104 27.3033 159.449 27.6488C159.795 27.9943 159.989 28.4629 159.989 28.9515C159.989 29.4401 159.795 29.9087 159.449 30.2542C159.104 30.5997 158.635 30.7938 158.147 30.7938ZM158.147 28.0947C158.02 28.0942 157.894 28.122 157.779 28.1761C157.664 28.2301 157.563 28.3091 157.483 28.4072C157.402 28.5054 157.344 28.6202 157.314 28.7434C157.283 28.8666 157.28 28.9951 157.306 29.1195C157.33 29.2439 157.382 29.3613 157.457 29.4633C157.533 29.5652 157.63 29.6491 157.742 29.7088C157.854 29.7685 157.977 29.8027 158.104 29.8087C158.231 29.8147 158.357 29.7924 158.474 29.7435C158.63 29.6782 158.764 29.5683 158.858 29.4274C158.952 29.2865 159.003 29.121 159.003 28.9515C159.004 28.8389 158.982 28.7273 158.939 28.6233C158.896 28.5192 158.832 28.4248 158.753 28.3456C158.592 28.185 158.374 28.0948 158.147 28.0947ZM223.458 52.0381C223.216 52.038 222.977 51.9903 222.753 51.8977C222.53 51.8051 222.327 51.6694 222.156 51.4984C221.985 51.3274 221.85 51.1244 221.757 50.901C221.665 50.6775 221.617 50.4381 221.617 50.1963C221.617 49.9545 221.665 49.7151 221.758 49.4917C221.85 49.2684 221.986 49.0654 222.157 48.8945C222.328 48.7236 222.531 48.588 222.754 48.4956C222.978 48.4031 223.217 48.3555 223.459 48.3556C223.947 48.3558 224.416 48.5499 224.761 48.8953C225.106 49.2407 225.3 49.709 225.3 50.1974C225.3 50.6857 225.105 51.154 224.76 51.4992C224.415 51.8444 223.946 52.0382 223.458 52.0381ZM223.458 49.34C223.289 49.3407 223.124 49.3911 222.983 49.4851C222.842 49.579 222.732 49.7123 222.667 49.8684C222.617 49.9857 222.594 50.1126 222.6 50.2399C222.605 50.3672 222.639 50.4916 222.699 50.6043C222.758 50.7169 222.842 50.8148 222.944 50.891C223.046 50.9671 223.164 51.0195 223.289 51.0445C223.414 51.0694 223.543 51.0661 223.667 51.035C223.79 51.0038 223.905 50.9456 224.003 50.8644C224.102 50.7832 224.181 50.6812 224.234 50.5657C224.288 50.4503 224.316 50.3242 224.315 50.1968C224.32 50.0811 224.302 49.9656 224.261 49.8571C224.221 49.7486 224.159 49.6493 224.079 49.5654C223.999 49.4814 223.902 49.4146 223.796 49.3689C223.689 49.3232 223.574 49.2997 223.458 49.2996V49.34ZM223.461 38.1194C223.063 38.1207 222.676 37.9938 222.355 37.7576C222.035 37.5214 221.8 37.1883 221.684 36.8077C221.568 36.4272 221.577 36.0194 221.711 35.6447C221.845 35.27 222.096 34.9484 222.427 34.7274C222.758 34.5065 223.151 34.398 223.548 34.418C223.946 34.438 224.326 34.5855 224.633 34.8385C224.94 35.0916 225.157 35.4368 225.253 35.823C225.348 36.2093 225.317 36.616 225.163 36.983C225.024 37.3199 224.788 37.6079 224.485 37.8104C224.182 38.0129 223.826 38.1198 223.461 38.1194ZM223.461 35.4118C223.289 35.4092 223.121 35.4581 222.977 35.552C222.833 35.6459 222.72 35.7807 222.653 35.939C222.587 36.0974 222.568 36.2719 222.601 36.4406C222.633 36.6093 222.715 36.7647 222.835 36.8873C222.926 36.9781 223.035 37.0478 223.156 37.0912C223.277 37.1347 223.406 37.1509 223.533 37.1387C223.661 37.1266 223.784 37.0863 223.895 37.0207C224.005 36.9552 224.099 36.8661 224.171 36.7597C224.258 36.63 224.308 36.4792 224.316 36.3234C224.324 36.1675 224.29 36.0124 224.218 35.8743C224.145 35.7362 224.036 35.6203 223.903 35.5389C223.77 35.4575 223.617 35.4136 223.461 35.4118ZM233.618 27.9969C233.346 27.995 233.078 27.9331 232.833 27.8154C232.588 27.6978 232.372 27.5274 232.2 27.3165C232.029 27.1056 231.906 26.8594 231.841 26.5954C231.776 26.3315 231.77 26.0565 231.823 25.79C231.913 25.342 232.167 24.9435 232.534 24.672C232.902 24.4005 233.357 24.2754 233.812 24.321C234.267 24.3666 234.688 24.5796 234.995 24.9187C235.301 25.2578 235.47 25.6987 235.47 26.1557C235.467 26.6451 235.271 27.1135 234.924 27.4586C234.577 27.8036 234.107 27.9972 233.618 27.9969ZM233.618 25.2988C233.448 25.2985 233.283 25.3486 233.142 25.4426C233.001 25.5367 232.891 25.6706 232.827 25.8272C232.777 25.9445 232.754 26.0715 232.76 26.1988C232.765 26.3262 232.799 26.4507 232.858 26.5633C232.918 26.676 233.002 26.7739 233.104 26.85C233.206 26.9261 233.324 26.9785 233.449 27.0034C233.574 27.0282 233.703 27.0249 233.827 26.9936C233.951 26.9624 234.066 26.904 234.164 26.8227C234.262 26.7414 234.341 26.6393 234.394 26.5237C234.448 26.4081 234.476 26.2821 234.474 26.1546C234.472 25.9281 234.381 25.7116 234.221 25.5515C234.061 25.3913 233.844 25.3013 233.618 25.2988ZM29.1704 112.905C28.8062 112.905 28.4499 112.798 28.147 112.595C27.8442 112.393 27.6083 112.105 27.4695 111.768C27.3181 111.403 27.2881 110.999 27.384 110.616C27.4799 110.232 27.6966 109.89 28.0021 109.639C28.3076 109.388 28.6857 109.242 29.0805 109.222C29.4754 109.203 29.866 109.311 30.1947 109.531C30.5234 109.75 30.7727 110.07 30.9059 110.442C31.039 110.814 31.0489 111.219 30.9341 111.598C30.8193 111.976 30.5858 112.307 30.2682 112.543C29.9506 112.778 29.5657 112.905 29.1704 112.905ZM29.1704 110.207C29.0013 110.207 28.8361 110.258 28.6954 110.352C28.5547 110.446 28.4449 110.579 28.3795 110.735C28.3088 110.905 28.2946 111.093 28.3391 111.272C28.3837 111.451 28.4845 111.61 28.6268 111.727C28.769 111.844 28.9451 111.912 29.1291 111.921C29.313 111.931 29.495 111.88 29.6481 111.778C29.8013 111.676 29.9174 111.527 29.9794 111.353C30.0414 111.18 30.0459 110.991 29.9924 110.815C29.9388 110.639 29.83 110.485 29.682 110.375C29.5339 110.266 29.3546 110.206 29.1704 110.207ZM29.1704 123.226C28.8062 123.227 28.4499 123.119 28.147 122.917C27.8442 122.714 27.6083 122.426 27.4695 122.09C27.3181 121.725 27.2881 121.32 27.384 120.937C27.4799 120.553 27.6966 120.211 28.0021 119.96C28.3076 119.709 28.6857 119.563 29.0805 119.544C29.4754 119.524 29.866 119.632 30.1947 119.852C30.5234 120.072 30.7727 120.391 30.9059 120.763C31.039 121.135 31.0489 121.541 30.9341 121.919C30.8193 122.297 30.5858 122.628 30.2682 122.864C29.9506 123.099 29.5657 123.226 29.1704 123.226ZM29.1704 120.528C29.0013 120.529 28.8361 120.579 28.6954 120.673C28.5547 120.767 28.4449 120.9 28.3795 121.056C28.3088 121.226 28.2946 121.415 28.3391 121.593C28.3837 121.772 28.4845 121.932 28.6268 122.049C28.769 122.166 28.9451 122.234 29.1291 122.243C29.313 122.252 29.495 122.202 29.6481 122.099C29.8013 121.997 29.9174 121.848 29.9794 121.675C30.0414 121.501 30.0459 121.313 29.9924 121.136C29.9388 120.96 29.83 120.806 29.682 120.696C29.5339 120.587 29.3546 120.528 29.1704 120.528ZM59.6176 150.981C59.2535 150.98 58.8977 150.872 58.5951 150.669C58.2924 150.467 58.0564 150.179 57.9167 149.843C57.7652 149.478 57.7353 149.073 57.8314 148.689C57.9275 148.306 58.1445 147.963 58.4502 147.712C58.756 147.461 59.1344 147.315 59.5295 147.296C59.9246 147.277 60.3155 147.385 60.6443 147.605C60.9731 147.825 61.2225 148.145 61.3555 148.517C61.4886 148.89 61.4983 149.295 61.3832 149.674C61.2681 150.052 61.0343 150.383 60.7163 150.619C60.3984 150.854 60.0132 150.981 59.6176 150.981ZM59.6176 148.281C59.4479 148.281 59.282 148.331 59.1409 148.425C58.9998 148.52 58.8901 148.654 58.8256 148.811C58.7767 148.928 58.7545 149.054 58.7606 149.181C58.7666 149.308 58.8008 149.432 58.8607 149.543C58.9205 149.655 59.0045 149.752 59.1066 149.828C59.2086 149.903 59.3262 149.955 59.4507 149.979C59.5686 150.004 59.6903 150.003 59.808 149.978C59.9257 149.952 60.0366 149.902 60.1337 149.831C60.2307 149.759 60.3117 149.668 60.3712 149.564C60.4308 149.459 60.4677 149.343 60.4795 149.223C60.4913 149.103 60.4777 148.982 60.4396 148.868C60.4016 148.754 60.3399 148.649 60.2586 148.56C60.1773 148.471 60.0782 148.401 59.9678 148.353C59.8573 148.305 59.738 148.28 59.6176 148.281ZM68.7408 150.981C68.3767 150.98 68.021 150.872 67.7183 150.669C67.4156 150.467 67.1796 150.179 67.0399 149.843C66.8887 149.478 66.859 149.074 66.9551 148.69C67.0512 148.307 67.2681 147.965 67.5737 147.714C67.8793 147.463 68.2575 147.317 68.6523 147.298C69.0471 147.279 69.4376 147.387 69.7662 147.607C70.0948 147.827 70.3439 148.146 70.4769 148.518C70.6099 148.891 70.6197 149.296 70.5047 149.674C70.3898 150.052 70.1563 150.383 69.8386 150.619C69.521 150.854 69.1361 150.981 68.7408 150.981ZM68.7408 148.281C68.5713 148.281 68.4055 148.331 68.2646 148.425C68.1237 148.52 68.0142 148.654 67.9499 148.811C67.901 148.928 67.8788 149.054 67.8848 149.181C67.8908 149.308 67.9249 149.431 67.9846 149.543C68.0443 149.655 68.1282 149.752 68.2301 149.828C68.3321 149.903 68.4495 149.955 68.5739 149.979C68.6918 150.004 68.8135 150.003 68.9312 149.978C69.0489 149.952 69.1598 149.902 69.2569 149.831C69.3539 149.759 69.4349 149.668 69.4944 149.564C69.554 149.459 69.5909 149.343 69.6027 149.223C69.6145 149.103 69.6009 148.982 69.5628 148.868C69.5248 148.754 69.4631 148.649 69.3818 148.56C69.3005 148.471 69.2014 148.401 69.091 148.353C68.9805 148.305 68.8612 148.28 68.7408 148.281ZM82.8062 159.391C82.4419 159.391 82.0859 159.283 81.7831 159.08C81.4802 158.878 81.244 158.59 81.1042 158.254C80.953 157.889 80.9233 157.485 81.0194 157.101C81.1155 156.718 81.3324 156.375 81.638 156.125C81.9436 155.874 82.3218 155.728 82.7166 155.709C83.1114 155.69 83.5019 155.798 83.8305 156.018C84.1591 156.238 84.4083 156.557 84.5413 156.929C84.6743 157.302 84.684 157.707 84.5691 158.085C84.4541 158.463 84.2206 158.794 83.9029 159.03C83.5853 159.265 83.2015 159.392 82.8062 159.391ZM82.8062 156.692C82.6365 156.692 82.4706 156.742 82.3295 156.836C82.1884 156.931 82.0787 157.065 82.0142 157.222C81.9491 157.378 81.932 157.551 81.9651 157.717C81.9982 157.883 82.0801 158.036 82.2003 158.155C82.2896 158.245 82.3979 158.314 82.5173 158.357C82.6366 158.4 82.764 158.416 82.8902 158.403C83.0163 158.391 83.1382 158.35 83.2469 158.285C83.3555 158.22 83.4483 158.131 83.5185 158.025C83.6127 157.885 83.663 157.719 83.663 157.549C83.6605 157.324 83.5691 157.108 83.4087 156.95C83.2483 156.791 83.0318 156.702 82.8062 156.702V156.692ZM89.9479 159.391C89.6757 159.391 89.4069 159.33 89.161 159.214C88.915 159.097 88.6979 158.927 88.5253 158.717C88.3526 158.506 88.2287 158.26 88.1624 157.996C88.0961 157.732 88.089 157.457 88.1417 157.19C88.2117 156.832 88.3866 156.503 88.6441 156.244C88.9017 155.986 89.2304 155.81 89.5882 155.739C89.9461 155.667 90.3171 155.704 90.6539 155.845C90.9907 155.985 91.2782 156.222 91.4797 156.527C91.6648 156.804 91.7712 157.126 91.7875 157.459C91.8037 157.792 91.7294 158.123 91.5722 158.417C91.4151 158.711 91.1812 158.957 90.8953 159.129C90.6094 159.3 90.2813 159.391 89.9479 159.391ZM89.9479 156.692C89.7784 156.692 89.6126 156.742 89.4718 156.837C89.3309 156.931 89.2213 157.065 89.1569 157.222C89.108 157.339 89.0858 157.465 89.0918 157.592C89.0978 157.718 89.1319 157.842 89.1916 157.954C89.2514 158.066 89.3353 158.163 89.4372 158.238C89.5391 158.314 89.6565 158.366 89.781 158.39C89.9052 158.415 90.0334 158.411 90.1562 158.38C90.279 158.349 90.3935 158.292 90.4913 158.211C90.5892 158.131 90.668 158.03 90.7222 157.915C90.7764 157.801 90.8046 157.676 90.8047 157.549C90.8022 157.324 90.7108 157.108 90.5504 156.95C90.39 156.791 90.1735 156.702 89.9479 156.702V156.692ZM97.0725 159.391C96.7086 159.39 96.3533 159.28 96.0517 159.077C95.75 158.873 95.5156 158.585 95.378 158.248C95.2281 157.882 95.1999 157.477 95.2975 157.094C95.3952 156.711 95.6135 156.37 95.9202 156.12C96.2269 155.871 96.6057 155.726 97.0007 155.709C97.3957 155.691 97.7858 155.801 98.1135 156.022C98.4412 156.243 98.689 156.564 98.8204 156.937C98.9518 157.31 98.9597 157.715 98.843 158.093C98.7262 158.471 98.4911 158.801 98.1723 159.035C97.8535 159.269 97.4679 159.394 97.0725 159.391ZM97.0725 156.692C96.9464 156.695 96.8224 156.725 96.7092 156.78C96.596 156.836 96.4964 156.916 96.4173 157.014C96.3383 157.112 96.2817 157.226 96.2516 157.349C96.2216 157.471 96.2187 157.599 96.2433 157.722C96.2687 157.846 96.3212 157.963 96.397 158.064C96.4729 158.165 96.5702 158.249 96.682 158.308C96.7939 158.367 96.9174 158.4 97.0437 158.406C97.1701 158.411 97.2961 158.389 97.4127 158.34C97.5686 158.275 97.7017 158.165 97.7953 158.024C97.8889 157.883 97.9389 157.718 97.9389 157.549C97.9358 157.322 97.8429 157.105 97.6806 156.947C97.5182 156.788 97.2996 156.7 97.0725 156.702V156.692ZM154.459 182.298C154.095 182.298 153.739 182.19 153.436 181.988C153.133 181.786 152.897 181.498 152.757 181.162C152.605 180.797 152.575 180.393 152.671 180.009C152.767 179.626 152.984 179.283 153.289 179.032C153.595 178.782 153.973 178.636 154.367 178.616C154.762 178.596 155.153 178.704 155.482 178.924C155.81 179.143 156.06 179.463 156.193 179.835C156.326 180.207 156.336 180.612 156.222 180.99C156.107 181.369 155.874 181.7 155.556 181.936C155.239 182.171 154.854 182.298 154.459 182.298ZM154.459 179.6C154.232 179.6 154.014 179.69 153.854 179.851C153.693 180.011 153.603 180.229 153.603 180.456C153.603 180.683 153.693 180.901 153.854 181.061C154.014 181.222 154.232 181.312 154.459 181.312C154.686 181.312 154.903 181.222 155.064 181.061C155.224 180.901 155.315 180.683 155.315 180.456C155.315 180.229 155.224 180.011 155.064 179.851C154.903 179.69 154.686 179.6 154.459 179.6ZM148.589 187.619C148.222 187.619 147.863 187.51 147.559 187.306C147.254 187.102 147.017 186.812 146.877 186.473C146.737 186.134 146.701 185.761 146.773 185.402C146.845 185.042 147.023 184.712 147.283 184.454C147.543 184.195 147.874 184.02 148.234 183.95C148.594 183.879 148.966 183.918 149.305 184.059C149.643 184.201 149.931 184.44 150.133 184.746C150.336 185.052 150.443 185.411 150.44 185.778C150.441 186.02 150.393 186.261 150.3 186.485C150.206 186.709 150.07 186.912 149.897 187.083C149.725 187.255 149.521 187.39 149.296 187.482C149.072 187.574 148.831 187.621 148.589 187.619ZM148.589 184.911C148.46 184.911 148.333 184.939 148.217 184.993C148.101 185.048 147.998 185.127 147.917 185.227C147.835 185.326 147.777 185.442 147.746 185.567C147.715 185.691 147.712 185.821 147.738 185.947C147.764 186.072 147.816 186.191 147.893 186.293C147.969 186.396 148.068 186.48 148.181 186.541C148.293 186.601 148.418 186.636 148.546 186.642C148.674 186.649 148.802 186.627 148.92 186.578C149.078 186.512 149.213 186.401 149.308 186.259C149.403 186.116 149.454 185.949 149.455 185.778C149.454 185.548 149.363 185.328 149.201 185.166C149.038 185.003 148.818 184.912 148.589 184.911ZM17.8042 165.409C17.4369 165.412 17.0773 165.305 16.7711 165.102C16.4649 164.899 16.2261 164.61 16.0852 164.271C15.9801 164.018 15.9324 163.744 15.9457 163.47C15.959 163.196 16.0328 162.929 16.162 162.687C16.2911 162.445 16.4723 162.234 16.6924 162.071C16.9126 161.907 17.1663 161.795 17.4353 161.741C17.7046 161.687 17.9825 161.694 18.2487 161.761C18.515 161.828 18.763 161.954 18.9747 162.129C19.1864 162.304 19.3566 162.523 19.4727 162.772C19.5889 163.021 19.6483 163.293 19.6464 163.567C19.6467 163.809 19.5993 164.049 19.5068 164.273C19.4143 164.496 19.2786 164.699 19.1075 164.87C18.9364 165.042 18.7331 165.177 18.5095 165.27C18.2859 165.362 18.0462 165.41 17.8042 165.409ZM17.8042 162.701C17.6321 162.698 17.4632 162.747 17.3192 162.841C17.1752 162.935 17.0627 163.07 16.9962 163.229C16.9238 163.4 16.9082 163.59 16.9518 163.77C16.9954 163.951 17.0958 164.113 17.2384 164.232C17.3809 164.351 17.5579 164.421 17.7433 164.432C17.9287 164.443 18.1127 164.394 18.2682 164.292C18.4236 164.191 18.5423 164.042 18.6067 163.867C18.671 163.693 18.6777 163.503 18.6257 163.325C18.5738 163.146 18.4658 162.989 18.3179 162.877C18.17 162.765 17.9899 162.703 17.8042 162.701ZM17.8063 189.973C17.4418 189.974 17.0854 189.866 16.7823 189.664C16.4792 189.461 16.2432 189.173 16.1043 188.836C15.9529 188.471 15.9229 188.067 16.0188 187.683C16.1147 187.3 16.3314 186.957 16.6369 186.707C16.9424 186.456 17.3205 186.31 17.7153 186.29C18.1102 186.271 18.5008 186.379 18.8295 186.598C19.1582 186.818 19.4075 187.138 19.5407 187.51C19.6738 187.882 19.6837 188.287 19.5689 188.665C19.454 189.044 19.2206 189.375 18.903 189.61C18.5854 189.846 18.2016 189.973 17.8063 189.973ZM17.8063 187.275C17.6365 187.274 17.4704 187.324 17.3292 187.418C17.1879 187.512 17.0779 187.646 17.0132 187.803C16.9652 187.92 16.9435 188.046 16.95 188.173C16.9564 188.299 16.9907 188.423 17.0505 188.534C17.1102 188.646 17.1939 188.743 17.2955 188.819C17.3971 188.894 17.5142 188.946 17.6383 188.971C17.7565 188.997 17.8786 188.997 17.9968 188.971C18.115 188.946 18.2265 188.896 18.3241 188.825C18.4216 188.754 18.503 188.663 18.563 188.558C18.6229 188.453 18.66 188.337 18.6718 188.216C18.6837 188.096 18.67 187.975 18.6316 187.86C18.5933 187.746 18.5312 187.64 18.4494 187.551C18.3675 187.463 18.2679 187.392 18.1569 187.344C18.0459 187.296 17.9271 187.273 17.8063 187.275ZM12.7429 210.998C12.4707 210.997 12.202 210.937 11.956 210.82C11.7101 210.703 11.493 210.534 11.3203 210.323C11.1477 210.113 11.0237 209.867 10.9574 209.603C10.8911 209.339 10.8841 209.063 10.9368 208.796C11.0067 208.438 11.1816 208.109 11.4392 207.851C11.6968 207.592 12.0254 207.416 12.3833 207.345C12.7412 207.274 13.1121 207.311 13.4489 207.451C13.7858 207.591 14.0732 207.829 14.2748 208.133C14.461 208.41 14.5683 208.733 14.5851 209.066C14.602 209.399 14.5278 209.731 14.3705 210.025C14.2131 210.32 13.9786 210.566 13.6921 210.737C13.4056 210.909 13.0768 210.999 12.7429 210.998ZM12.7429 208.299C12.5734 208.299 12.4077 208.349 12.2668 208.443C12.126 208.537 12.0164 208.671 11.952 208.828C11.9031 208.945 11.8808 209.072 11.8868 209.198C11.8928 209.325 11.927 209.449 11.9867 209.56C12.0464 209.672 12.1303 209.769 12.2322 209.845C12.3342 209.92 12.4516 209.972 12.576 209.996C12.6939 210.021 12.8156 210.02 12.9333 209.995C13.051 209.969 13.1619 209.919 13.259 209.848C13.356 209.777 13.437 209.686 13.4965 209.581C13.5561 209.476 13.593 209.36 13.6048 209.241C13.6166 209.121 13.603 209 13.5649 208.885C13.5269 208.771 13.4652 208.666 13.3839 208.577C13.3026 208.489 13.2035 208.418 13.0931 208.37C12.9826 208.322 12.8633 208.298 12.7429 208.299ZM19.9228 210.998C19.6506 210.997 19.3819 210.937 19.1359 210.82C18.89 210.703 18.6729 210.534 18.5002 210.323C18.3276 210.113 18.2037 209.867 18.1373 209.603C18.071 209.339 18.064 209.063 18.1167 208.796C18.1867 208.438 18.3615 208.109 18.6191 207.851C18.8767 207.592 19.2053 207.416 19.5632 207.345C19.9211 207.274 20.292 207.311 20.6289 207.451C20.9657 207.591 21.2532 207.829 21.4547 208.133C21.6409 208.41 21.7482 208.733 21.7651 209.066C21.7819 209.399 21.7077 209.731 21.5504 210.025C21.3931 210.32 21.1586 210.566 20.872 210.737C20.5855 210.909 20.2577 210.999 19.9239 210.998H19.9228ZM19.9228 208.299C19.7533 208.298 19.5875 208.349 19.4466 208.443C19.3058 208.537 19.1962 208.671 19.1319 208.828C19.083 208.945 19.0608 209.072 19.0668 209.198C19.0728 209.325 19.1069 209.449 19.1666 209.56C19.2264 209.672 19.3102 209.769 19.4122 209.845C19.5141 209.92 19.6315 209.972 19.7559 209.996C19.8738 210.021 19.9956 210.02 20.1132 209.995C20.2309 209.969 20.3419 209.919 20.4389 209.848C20.5359 209.777 20.6169 209.686 20.6765 209.581C20.736 209.476 20.7729 209.36 20.7847 209.241C20.7965 209.121 20.7829 209 20.7448 208.885C20.7068 208.771 20.6451 208.666 20.5638 208.577C20.4825 208.489 20.3834 208.418 20.273 208.37C20.1626 208.322 20.0433 208.298 19.9228 208.299ZM224.634 162.74C224.27 162.74 223.914 162.632 223.611 162.429C223.308 162.227 223.072 161.94 222.932 161.604C222.792 161.267 222.755 160.897 222.826 160.539C222.898 160.182 223.073 159.854 223.331 159.597C223.524 159.404 223.756 159.256 224.013 159.163C224.269 159.071 224.543 159.037 224.814 159.064C225.085 159.091 225.347 159.177 225.581 159.318C225.814 159.458 226.014 159.648 226.165 159.875C226.401 160.229 226.507 160.654 226.465 161.078C226.423 161.502 226.235 161.898 225.933 162.198C225.588 162.543 225.121 162.738 224.634 162.74ZM224.634 160.042C224.507 160.042 224.382 160.071 224.268 160.125C224.153 160.179 224.052 160.258 223.972 160.356C223.892 160.454 223.834 160.568 223.803 160.691C223.772 160.813 223.769 160.942 223.793 161.066C223.836 161.273 223.954 161.457 224.125 161.582C224.295 161.707 224.506 161.765 224.717 161.745C224.927 161.724 225.123 161.626 225.266 161.47C225.408 161.314 225.489 161.11 225.491 160.899C225.488 160.673 225.397 160.456 225.237 160.296C225.076 160.136 224.86 160.045 224.634 160.042ZM139.564 227.566H100.445L76.2365 203.358H65.1764V202.372H76.6404L100.849 226.581H139.564V227.566Z" fill="#10393E"/>
<path d="M142.888 230.892C142.387 230.892 141.89 230.793 141.426 230.601C140.963 230.409 140.541 230.128 140.187 229.773C139.832 229.418 139.55 228.997 139.358 228.533C139.166 228.07 139.068 227.573 139.068 227.071C139.068 226.57 139.166 226.073 139.358 225.609C139.55 225.146 139.832 224.724 140.187 224.37C140.541 224.015 140.963 223.733 141.426 223.541C141.89 223.349 142.387 223.251 142.888 223.251C143.902 223.251 144.873 223.653 145.59 224.37C146.306 225.086 146.709 226.058 146.709 227.071C146.709 228.085 146.306 229.056 145.59 229.773C144.873 230.489 143.902 230.892 142.888 230.892ZM142.888 225.219C142.523 225.219 142.164 225.328 141.859 225.531C141.556 225.735 141.319 226.025 141.179 226.363C141.039 226.701 141.002 227.073 141.073 227.432C141.141 227.775 141.306 228.093 141.547 228.347C141.789 228.6 142.098 228.78 142.438 228.866C142.778 228.951 143.135 228.938 143.468 228.828C143.801 228.718 144.096 228.515 144.318 228.244C144.541 227.973 144.682 227.645 144.725 227.297C144.768 226.949 144.711 226.596 144.561 226.279C144.411 225.962 144.174 225.694 143.878 225.507C143.582 225.319 143.239 225.22 142.888 225.219ZM142.887 221.635C141.871 221.637 140.896 221.236 140.176 220.52C139.455 219.803 139.049 218.83 139.046 217.814C139.044 216.798 139.445 215.823 140.161 215.102C140.878 214.382 141.851 213.976 142.867 213.973C143.883 213.971 144.858 214.372 145.579 215.088C146.299 215.805 146.705 216.778 146.708 217.794C146.711 218.81 146.31 219.785 145.593 220.506C144.877 221.226 143.903 221.632 142.887 221.635ZM142.887 215.952C142.611 215.951 142.339 216.011 142.089 216.128C141.84 216.245 141.619 216.416 141.444 216.629C141.268 216.841 141.142 217.09 141.074 217.358C141.006 217.625 140.998 217.904 141.051 218.174C141.138 218.631 141.393 219.039 141.766 219.317C142.139 219.596 142.602 219.724 143.065 219.678C143.528 219.631 143.957 219.413 144.266 219.066C144.576 218.719 144.745 218.269 144.739 217.803C144.739 217.312 144.544 216.841 144.197 216.494C143.849 216.147 143.378 215.952 142.887 215.952ZM142.887 212.368C142.129 212.37 141.387 212.147 140.755 211.726C140.123 211.306 139.631 210.708 139.34 210.007C139.049 209.307 138.972 208.535 139.12 207.791C139.267 207.047 139.632 206.364 140.169 205.827C140.705 205.291 141.389 204.926 142.133 204.779C142.877 204.631 143.649 204.708 144.349 204.999C145.049 205.291 145.648 205.783 146.068 206.415C146.488 207.047 146.711 207.789 146.709 208.547C146.709 209.049 146.61 209.546 146.418 210.01C146.226 210.473 145.944 210.895 145.59 211.249C145.235 211.604 144.813 211.886 144.35 212.078C143.886 212.269 143.389 212.368 142.887 212.368ZM142.887 206.686C142.612 206.684 142.339 206.744 142.089 206.86C141.839 206.977 141.619 207.148 141.443 207.36C141.267 207.572 141.141 207.821 141.073 208.088C141.005 208.355 140.997 208.634 141.05 208.905C141.121 209.266 141.298 209.599 141.557 209.86C141.818 210.121 142.15 210.299 142.511 210.371C142.872 210.443 143.247 210.407 143.588 210.267C143.929 210.127 144.22 209.889 144.425 209.583C144.63 209.276 144.74 208.916 144.739 208.547C144.741 208.302 144.695 208.059 144.603 207.832C144.511 207.604 144.376 207.397 144.204 207.222C144.031 207.048 143.827 206.909 143.601 206.813C143.375 206.717 143.132 206.667 142.887 206.666V206.686ZM152.037 230.892C151.281 230.891 150.543 230.667 149.914 230.247C149.286 229.827 148.795 229.231 148.506 228.533C148.216 227.835 148.14 227.066 148.288 226.325C148.436 225.584 148.8 224.903 149.335 224.369C149.734 223.969 150.217 223.663 150.749 223.472C151.281 223.281 151.849 223.211 152.411 223.267C152.973 223.322 153.516 223.501 154.001 223.792C154.486 224.083 154.9 224.477 155.213 224.947C155.598 225.523 155.819 226.191 155.854 226.883C155.888 227.574 155.734 228.261 155.407 228.872C155.081 229.482 154.595 229.993 154.002 230.348C153.408 230.704 152.729 230.892 152.037 230.892ZM152.037 225.219C151.763 225.22 151.493 225.28 151.246 225.397C150.998 225.514 150.78 225.685 150.606 225.896C150.432 226.108 150.308 226.355 150.241 226.621C150.174 226.886 150.167 227.163 150.22 227.432C150.291 227.791 150.468 228.122 150.727 228.38C150.986 228.64 151.316 228.817 151.675 228.888C152.034 228.96 152.407 228.923 152.745 228.782C153.198 228.593 153.558 228.232 153.746 227.779C153.934 227.326 153.934 226.816 153.747 226.362C153.559 225.909 153.198 225.549 152.745 225.36C152.52 225.267 152.28 225.22 152.037 225.219ZM152.036 221.635C151.278 221.637 150.536 221.415 149.904 220.995C149.272 220.575 148.78 219.977 148.489 219.277C148.271 218.754 148.172 218.188 148.199 217.622C148.226 217.056 148.378 216.503 148.645 216.003C148.911 215.503 149.285 215.068 149.74 214.73C150.195 214.391 150.719 214.158 151.275 214.047C152.018 213.898 152.789 213.973 153.489 214.263C154.19 214.552 154.79 215.043 155.211 215.674C155.633 216.304 155.857 217.045 155.857 217.803C155.857 218.818 155.455 219.791 154.739 220.509C154.023 221.228 153.05 221.633 152.036 221.635ZM152.036 215.952C151.667 215.951 151.306 216.059 150.998 216.262C150.691 216.466 150.45 216.756 150.307 217.097C150.166 217.437 150.128 217.812 150.199 218.174C150.267 218.52 150.432 218.84 150.675 219.096C150.917 219.351 151.227 219.533 151.569 219.62C151.911 219.706 152.27 219.694 152.605 219.584C152.94 219.475 153.237 219.272 153.462 219.001C153.687 218.729 153.829 218.399 153.874 218.049C153.918 217.7 153.863 217.344 153.713 217.025C153.564 216.706 153.327 216.435 153.03 216.245C152.733 216.055 152.388 215.953 152.036 215.952ZM152.036 212.368C151.277 212.37 150.535 212.147 149.903 211.727C149.272 211.307 148.779 210.708 148.488 210.008C148.196 209.307 148.12 208.536 148.267 207.792C148.415 207.048 148.78 206.364 149.316 205.828C149.853 205.291 150.536 204.926 151.28 204.779C152.025 204.631 152.796 204.708 153.496 204.999C154.197 205.29 154.795 205.783 155.215 206.415C155.636 207.047 155.859 207.789 155.857 208.547C155.857 209.561 155.454 210.533 154.738 211.249C154.021 211.966 153.049 212.368 152.036 212.368ZM152.036 206.686C151.667 206.684 151.306 206.791 150.999 206.995C150.691 207.198 150.451 207.488 150.308 207.828C150.166 208.168 150.127 208.543 150.198 208.905C150.269 209.266 150.446 209.599 150.706 209.86C150.966 210.122 151.298 210.301 151.659 210.373C152.02 210.446 152.395 210.41 152.736 210.269C153.077 210.129 153.368 209.89 153.573 209.583C153.778 209.277 153.887 208.916 153.887 208.547C153.893 208.178 153.787 207.815 153.585 207.505C153.382 207.196 153.091 206.955 152.749 206.812C152.524 206.717 152.281 206.667 152.036 206.666V206.686ZM161.147 230.892C160.392 230.892 159.653 230.668 159.025 230.248C158.397 229.828 157.907 229.232 157.618 228.533C157.328 227.835 157.253 227.067 157.4 226.326C157.548 225.585 157.912 224.904 158.446 224.37C158.98 223.835 159.661 223.471 160.402 223.324C161.143 223.177 161.911 223.252 162.61 223.541C163.308 223.831 163.904 224.32 164.324 224.949C164.744 225.577 164.968 226.316 164.968 227.071C164.966 228.084 164.563 229.055 163.847 229.771C163.131 230.487 162.16 230.89 161.147 230.892ZM161.147 225.219C160.781 225.22 160.424 225.329 160.119 225.532C159.815 225.736 159.578 226.024 159.437 226.362C159.333 226.615 159.286 226.888 159.3 227.16C159.314 227.433 159.388 227.7 159.517 227.941C159.646 228.182 159.827 228.391 160.047 228.554C160.266 228.716 160.519 228.828 160.787 228.882C161.055 228.935 161.332 228.928 161.597 228.862C161.862 228.796 162.109 228.672 162.321 228.499C162.532 228.326 162.703 228.108 162.82 227.861C162.937 227.614 162.999 227.345 162.999 227.071C162.996 226.581 162.8 226.112 162.454 225.765C162.107 225.419 161.638 225.222 161.147 225.219ZM161.142 221.635C160.126 221.637 159.151 221.236 158.43 220.52C157.71 219.803 157.304 218.83 157.301 217.814C157.299 216.798 157.7 215.823 158.416 215.102C159.133 214.382 160.106 213.976 161.122 213.973C162.138 213.971 163.113 214.372 163.834 215.088C164.554 215.805 164.96 216.778 164.963 217.794C164.965 218.81 164.564 219.785 163.848 220.506C163.131 221.226 162.158 221.632 161.142 221.635ZM161.142 215.952C160.866 215.951 160.594 216.011 160.344 216.128C160.095 216.245 159.874 216.416 159.698 216.629C159.523 216.841 159.397 217.09 159.329 217.358C159.261 217.625 159.253 217.904 159.306 218.174C159.375 218.52 159.54 218.838 159.782 219.093C160.025 219.349 160.335 219.53 160.676 219.616C161.017 219.702 161.376 219.689 161.71 219.58C162.045 219.47 162.341 219.268 162.565 218.997C162.789 218.725 162.932 218.396 162.976 218.047C163.021 217.698 162.965 217.343 162.816 217.024C162.667 216.705 162.431 216.435 162.135 216.246C161.838 216.056 161.494 215.954 161.142 215.952ZM161.142 212.368C160.639 212.369 160.141 212.272 159.675 212.08C159.21 211.889 158.787 211.608 158.43 211.253C158.073 210.899 157.79 210.477 157.596 210.013C157.402 209.548 157.302 209.051 157.3 208.547C157.299 208.044 157.397 207.546 157.588 207.08C157.779 206.615 158.06 206.192 158.415 205.835C158.77 205.478 159.191 205.195 159.656 205.001C160.12 204.807 160.618 204.707 161.121 204.705C162.137 204.703 163.113 205.104 163.833 205.82C164.554 206.537 164.96 207.51 164.963 208.526C164.966 209.542 164.565 210.518 163.848 211.238C163.132 211.959 162.158 212.365 161.142 212.368ZM161.142 206.686C160.867 206.684 160.594 206.744 160.344 206.86C160.094 206.977 159.874 207.148 159.698 207.36C159.522 207.572 159.396 207.821 159.328 208.088C159.26 208.355 159.252 208.634 159.305 208.905C159.376 209.266 159.553 209.599 159.812 209.86C160.073 210.121 160.405 210.299 160.766 210.371C161.127 210.443 161.502 210.407 161.843 210.267C162.184 210.127 162.475 209.889 162.68 209.583C162.885 209.276 162.994 208.916 162.994 208.547C162.996 208.302 162.95 208.059 162.858 207.832C162.766 207.604 162.63 207.397 162.458 207.222C162.286 207.048 162.082 206.909 161.856 206.813C161.63 206.717 161.387 206.667 161.142 206.666V206.686ZM170.248 230.892C169.493 230.89 168.755 230.664 168.128 230.243C167.501 229.822 167.012 229.225 166.724 228.527C166.51 228.004 166.414 227.441 166.442 226.877C166.471 226.313 166.625 225.763 166.892 225.265C167.159 224.768 167.532 224.335 167.986 223.999C168.44 223.663 168.962 223.432 169.516 223.322C170.257 223.176 171.025 223.252 171.723 223.541C172.42 223.831 173.017 224.32 173.436 224.948C173.927 225.685 174.147 226.568 174.06 227.448C173.972 228.329 173.583 229.151 172.957 229.777C172.238 230.493 171.263 230.894 170.248 230.892ZM170.248 225.219C169.882 225.221 169.525 225.331 169.222 225.535C168.918 225.74 168.683 226.03 168.544 226.369C168.407 226.707 168.372 227.079 168.445 227.437C168.518 227.796 168.694 228.125 168.952 228.383C169.211 228.643 169.541 228.82 169.901 228.892C170.26 228.964 170.633 228.927 170.972 228.786C171.31 228.645 171.599 228.407 171.802 228.101C172.005 227.796 172.112 227.437 172.11 227.07C172.11 226.827 172.062 226.585 171.967 226.36C171.874 226.135 171.737 225.93 171.563 225.758C171.391 225.586 171.186 225.449 170.96 225.356C170.734 225.264 170.492 225.217 170.248 225.219ZM170.243 221.635C169.485 221.635 168.744 221.411 168.114 220.99C167.484 220.569 166.993 219.97 166.703 219.269C166.389 218.51 166.327 217.67 166.526 216.872C166.726 216.075 167.177 215.363 167.812 214.842C168.448 214.32 169.234 214.017 170.055 213.977C170.876 213.937 171.688 214.161 172.371 214.618C173.055 215.075 173.573 215.739 173.85 216.513C174.127 217.287 174.148 218.129 173.909 218.916C173.671 219.702 173.185 220.391 172.525 220.881C171.865 221.37 171.065 221.635 170.243 221.635ZM170.243 215.952C169.967 215.951 169.695 216.012 169.446 216.13C169.196 216.248 168.976 216.42 168.802 216.633C168.627 216.847 168.502 217.096 168.436 217.364C168.369 217.632 168.363 217.911 168.418 218.181C168.491 218.541 168.669 218.873 168.93 219.133C169.192 219.393 169.524 219.569 169.886 219.64C170.278 219.718 170.685 219.667 171.045 219.496C171.406 219.324 171.703 219.041 171.89 218.688C172.077 218.335 172.146 217.931 172.086 217.535C172.026 217.14 171.84 216.775 171.556 216.494C171.207 216.147 170.735 215.952 170.243 215.952ZM170.243 212.368C169.485 212.369 168.743 212.144 168.113 211.723C167.482 211.301 166.991 210.702 166.702 210.001C166.388 209.241 166.326 208.4 166.526 207.603C166.726 206.806 167.177 206.094 167.813 205.572C168.449 205.051 169.235 204.748 170.056 204.708C170.878 204.668 171.69 204.893 172.373 205.35C173.057 205.807 173.575 206.471 173.852 207.245C174.129 208.02 174.149 208.862 173.91 209.649C173.672 210.435 173.186 211.124 172.526 211.614C171.865 212.104 171.065 212.368 170.243 212.368ZM170.243 206.686C169.968 206.685 169.696 206.746 169.447 206.864C169.198 206.981 168.978 207.152 168.803 207.365C168.629 207.578 168.503 207.827 168.437 208.094C168.37 208.361 168.364 208.64 168.418 208.91C168.489 209.271 168.666 209.603 168.926 209.864C169.186 210.124 169.518 210.301 169.879 210.373C170.149 210.427 170.428 210.42 170.695 210.353C170.962 210.287 171.211 210.161 171.424 209.987C171.637 209.812 171.808 209.592 171.926 209.344C172.044 209.095 172.105 208.823 172.104 208.547C172.108 208.177 172.001 207.813 171.797 207.504C171.593 207.194 171.301 206.952 170.96 206.809C170.733 206.715 170.489 206.666 170.243 206.666V206.686ZM179.327 230.892C178.825 230.892 178.328 230.793 177.865 230.601C177.401 230.409 176.98 230.128 176.625 229.773C176.271 229.418 175.989 228.997 175.797 228.533C175.605 228.07 175.506 227.573 175.506 227.071C175.506 226.57 175.605 226.073 175.797 225.609C175.989 225.146 176.271 224.724 176.625 224.37C176.98 224.015 177.401 223.733 177.865 223.541C178.328 223.349 178.825 223.251 179.327 223.251C180.34 223.251 181.312 223.653 182.029 224.37C182.745 225.086 183.148 226.058 183.148 227.071C183.148 228.085 182.745 229.056 182.029 229.773C181.312 230.489 180.34 230.892 179.327 230.892ZM179.327 225.219C178.836 225.219 178.364 225.415 178.017 225.762C177.67 226.109 177.475 226.581 177.475 227.072C177.475 227.563 177.67 228.034 178.017 228.382C178.364 228.729 178.836 228.924 179.327 228.924C179.818 228.924 180.289 228.729 180.637 228.382C180.984 228.034 181.179 227.563 181.179 227.072C181.179 226.581 180.984 226.109 180.637 225.762C180.289 225.415 179.818 225.219 179.327 225.219ZM179.326 221.635C178.568 221.637 177.826 221.414 177.194 220.995C176.563 220.575 176.071 219.977 175.779 219.277C175.562 218.754 175.463 218.188 175.49 217.622C175.517 217.056 175.669 216.503 175.936 216.003C176.202 215.503 176.576 215.068 177.031 214.73C177.486 214.391 178.01 214.158 178.566 214.047C179.309 213.898 180.08 213.973 180.78 214.263C181.481 214.552 182.081 215.043 182.502 215.674C182.924 216.304 183.148 217.045 183.148 217.803C183.148 218.818 182.746 219.792 182.029 220.51C181.313 221.228 180.34 221.633 179.326 221.635ZM179.326 215.952C179.05 215.951 178.778 216.011 178.528 216.128C178.278 216.245 178.058 216.416 177.882 216.629C177.707 216.841 177.58 217.09 177.512 217.358C177.445 217.625 177.437 217.904 177.49 218.174C177.543 218.445 177.656 218.701 177.82 218.923C177.984 219.145 178.195 219.327 178.439 219.457C178.682 219.587 178.952 219.661 179.228 219.674C179.503 219.687 179.778 219.638 180.033 219.531C180.374 219.39 180.665 219.15 180.869 218.842C181.073 218.534 181.18 218.173 181.178 217.803C181.177 217.312 180.982 216.842 180.635 216.494C180.288 216.147 179.817 215.952 179.326 215.952ZM179.326 212.368C178.568 212.37 177.826 212.146 177.195 211.726C176.563 211.306 176.071 210.708 175.78 210.007C175.489 209.307 175.413 208.536 175.56 207.792C175.708 207.048 176.073 206.365 176.609 205.829C177.146 205.293 177.829 204.928 178.573 204.781C179.317 204.633 180.088 204.71 180.788 205.001C181.488 205.292 182.086 205.785 182.506 206.416C182.926 207.047 183.149 207.789 183.148 208.547C183.148 209.049 183.049 209.546 182.857 210.01C182.665 210.473 182.383 210.895 182.028 211.249C181.673 211.604 181.252 211.886 180.788 212.078C180.325 212.269 179.828 212.368 179.326 212.368ZM179.326 206.686C178.957 206.684 178.596 206.791 178.288 206.995C177.98 207.198 177.74 207.488 177.597 207.829C177.455 208.169 177.417 208.544 177.487 208.906C177.558 209.268 177.735 209.601 177.995 209.862C178.255 210.124 178.587 210.302 178.949 210.374C179.31 210.447 179.685 210.411 180.026 210.27C180.367 210.129 180.659 209.89 180.864 209.584C181.069 209.277 181.178 208.916 181.178 208.547C181.182 208.178 181.076 207.815 180.874 207.506C180.671 207.197 180.381 206.956 180.04 206.812C179.814 206.717 179.571 206.667 179.326 206.666V206.686ZM188.463 230.892C187.961 230.892 187.464 230.793 187.001 230.601C186.537 230.409 186.116 230.128 185.761 229.773C185.406 229.418 185.125 228.997 184.933 228.533C184.741 228.07 184.642 227.573 184.642 227.071C184.642 226.57 184.741 226.073 184.933 225.609C185.125 225.146 185.406 224.724 185.761 224.37C186.116 224.015 186.537 223.733 187.001 223.541C187.464 223.349 187.961 223.251 188.463 223.251C189.476 223.251 190.448 223.653 191.164 224.37C191.881 225.086 192.284 226.058 192.284 227.071C192.284 228.085 191.881 229.056 191.164 229.773C190.448 230.489 189.476 230.892 188.463 230.892ZM188.463 225.219C188.097 225.219 187.739 225.328 187.434 225.531C187.13 225.735 186.894 226.025 186.754 226.363C186.614 226.701 186.577 227.073 186.647 227.432C186.718 227.791 186.895 228.122 187.154 228.38C187.413 228.639 187.742 228.816 188.101 228.887C188.37 228.941 188.647 228.935 188.913 228.869C189.179 228.803 189.427 228.678 189.639 228.504C189.851 228.331 190.021 228.112 190.138 227.864C190.255 227.616 190.315 227.345 190.315 227.071C190.315 226.828 190.268 226.587 190.175 226.362C190.082 226.137 189.945 225.933 189.773 225.762C189.601 225.59 189.396 225.453 189.172 225.36C188.947 225.267 188.706 225.22 188.463 225.219ZM188.466 221.635C187.45 221.637 186.475 221.236 185.754 220.52C185.034 219.803 184.628 218.83 184.625 217.814C184.623 216.798 185.024 215.823 185.74 215.102C186.457 214.382 187.43 213.976 188.446 213.973C189.462 213.971 190.437 214.372 191.158 215.088C191.878 215.805 192.284 216.778 192.287 217.794C192.289 218.81 191.888 219.785 191.172 220.506C190.455 221.226 189.482 221.632 188.466 221.635ZM188.466 215.952C188.19 215.951 187.918 216.011 187.668 216.128C187.419 216.245 187.198 216.416 187.022 216.629C186.847 216.841 186.721 217.09 186.653 217.358C186.585 217.625 186.577 217.904 186.63 218.174C186.717 218.631 186.972 219.039 187.345 219.317C187.718 219.596 188.181 219.724 188.644 219.678C189.107 219.631 189.535 219.413 189.845 219.066C190.155 218.719 190.324 218.269 190.318 217.803C190.318 217.312 190.123 216.841 189.776 216.494C189.428 216.147 188.957 215.952 188.466 215.952ZM110.197 19.2712C109.439 19.2712 108.698 19.0462 108.067 18.6248C107.437 18.2034 106.946 17.6045 106.656 16.9038C106.367 16.2032 106.291 15.4324 106.44 14.6889C106.589 13.9454 106.954 13.2628 107.491 12.7274C108.028 12.1919 108.712 11.8278 109.455 11.681C110.199 11.5343 110.97 11.6115 111.67 11.903C112.37 12.1944 112.967 12.687 113.387 13.3183C113.807 13.9496 114.03 14.6913 114.028 15.4494C114.028 16.2064 113.802 16.9462 113.381 17.5752C112.96 18.2042 112.362 18.6941 111.662 18.9831C111.197 19.1744 110.699 19.2733 110.197 19.2712ZM110.197 13.588C109.829 13.5882 109.47 13.6975 109.164 13.902C108.858 14.1065 108.62 14.397 108.479 14.7369C108.338 15.0768 108.302 15.4508 108.373 15.8116C108.445 16.1724 108.622 16.5037 108.883 16.7639C109.143 17.024 109.474 17.2011 109.835 17.2729C110.196 17.3448 110.57 17.308 110.909 17.1673C111.249 17.0267 111.54 16.7884 111.744 16.4826C111.949 16.1768 112.058 15.8173 112.058 15.4494C112.047 14.9629 111.846 14.4999 111.499 14.1595C111.151 13.819 110.684 13.6281 110.197 13.6274V13.588ZM110.198 10.0055C109.696 10.0042 109.199 9.90414 108.736 9.71092C108.273 9.5177 107.852 9.23514 107.499 8.87938C107.145 8.52361 106.864 8.1016 106.673 7.63745C106.482 7.1733 106.385 6.67609 106.386 6.17422C106.387 5.67234 106.487 5.17563 106.68 4.71244C106.874 4.24925 107.156 3.82865 107.512 3.47466C107.868 3.12067 108.29 2.84022 108.754 2.64932C109.218 2.45842 109.715 2.36082 110.217 2.36207C111.231 2.36461 112.202 2.76969 112.917 3.48819C113.632 4.2067 114.032 5.17977 114.029 6.19335C114.027 7.20693 113.622 8.17799 112.903 8.89291C112.185 9.60782 111.212 10.008 110.198 10.0055ZM110.198 4.33299C109.832 4.33552 109.476 4.44592 109.173 4.65035C108.869 4.85478 108.633 5.14414 108.494 5.48216C108.355 5.82065 108.32 6.19276 108.392 6.55138C108.465 6.90999 108.642 7.23898 108.902 7.49667C109.161 7.75519 109.491 7.93099 109.85 8.00178C110.209 8.07256 110.581 8.03514 110.919 7.89425C111.256 7.75338 111.545 7.51584 111.748 7.21149C111.951 6.90715 112.059 6.54959 112.059 6.18378C112.059 5.93996 112.011 5.69861 111.917 5.47355C111.823 5.2485 111.686 5.04416 111.513 4.87225C111.34 4.70033 111.135 4.56421 110.909 4.47167C110.684 4.37914 110.442 4.33201 110.198 4.33299ZM119.307 19.2733C118.551 19.2634 117.815 19.0301 117.192 18.6028C116.568 18.1754 116.085 17.5731 115.803 16.8717C115.521 16.1702 115.452 15.401 115.607 14.6609C115.761 13.9207 116.131 13.2428 116.669 12.7123C117.208 12.1819 117.892 11.8227 118.634 11.68C119.376 11.5372 120.145 11.6173 120.842 11.9102C121.539 12.203 122.133 12.6955 122.551 13.3257C122.969 13.9559 123.191 14.6955 123.189 15.4516C123.188 15.9583 123.087 16.4598 122.891 16.9271C122.695 17.3944 122.408 17.8181 122.047 18.1735C121.686 18.529 121.258 18.8092 120.787 18.9978C120.317 19.1864 119.814 19.2807 119.307 19.2733ZM119.307 13.5901C118.942 13.5993 118.586 13.7164 118.287 13.9267C117.987 14.137 117.756 14.4312 117.624 14.7723C117.524 15.0271 117.482 15.3007 117.5 15.5736C117.518 15.8466 117.597 16.1121 117.729 16.3514C117.862 16.5907 118.045 16.7979 118.267 16.9581C118.489 17.1184 118.743 17.2278 119.012 17.2786C119.281 17.3293 119.557 17.3203 119.822 17.252C120.087 17.1837 120.334 17.0578 120.544 16.8834C120.755 16.7089 120.925 16.4902 121.041 16.2427C121.158 15.9952 121.219 15.7251 121.219 15.4516C121.211 15.0821 121.093 14.7234 120.881 14.421C120.668 14.1186 120.371 13.886 120.026 13.7528C119.797 13.6647 119.553 13.6228 119.307 13.6295V13.5901ZM119.309 10.0055C118.807 9.99768 118.311 9.89111 117.851 9.69188C117.39 9.49266 116.974 9.20467 116.624 8.84436C116.275 8.48405 116 8.05848 115.815 7.59195C115.631 7.12541 115.54 6.62705 115.547 6.12532C115.555 5.62358 115.662 5.1283 115.861 4.66775C116.06 4.2072 116.348 3.7904 116.709 3.44115C117.069 3.09189 117.494 2.81703 117.961 2.63225C118.427 2.44746 118.926 2.35638 119.428 2.3642C120.441 2.37999 121.406 2.79766 122.112 3.52534C122.817 4.25301 123.204 5.23108 123.189 6.24438C123.173 7.25768 122.755 8.2232 122.028 8.92855C121.3 9.6339 120.322 10.0213 119.309 10.0055ZM119.309 4.33193C118.945 4.34386 118.593 4.46238 118.297 4.67276C118 4.88313 117.772 5.17607 117.641 5.51512C117.509 5.85433 117.481 6.22479 117.559 6.58011C117.637 6.93543 117.818 7.2598 118.08 7.51261C118.341 7.76511 118.671 7.93517 119.028 8.00163C119.385 8.06809 119.754 8.02801 120.089 7.88638C120.424 7.74476 120.709 7.50784 120.91 7.20511C121.112 6.90238 121.219 6.5472 121.22 6.18378C121.22 5.93559 121.17 5.68995 121.073 5.46144C120.976 5.23293 120.834 5.02619 120.656 4.85349C120.478 4.68078 120.267 4.54563 120.035 4.45604C119.804 4.36645 119.557 4.32424 119.309 4.33193ZM128.42 19.2712C127.661 19.2733 126.919 19.0501 126.288 18.63C125.656 18.2098 125.163 17.6117 124.872 16.9112C124.581 16.2108 124.504 15.4396 124.651 14.6954C124.799 13.9513 125.164 13.2676 125.7 12.7311C126.236 12.1946 126.92 11.8295 127.664 11.6818C128.408 11.5342 129.179 11.6108 129.88 11.902C130.58 12.1931 131.179 12.6857 131.599 13.3172C132.019 13.9487 132.243 14.6908 132.241 15.4494C132.241 15.9514 132.143 16.4485 131.951 16.9124C131.759 17.3762 131.478 17.7977 131.123 18.1527C130.768 18.5076 130.347 18.7892 129.883 18.9811C129.419 19.173 128.922 19.2716 128.42 19.2712ZM128.42 13.588C127.959 13.5876 127.513 13.7584 127.171 14.0675C126.828 14.3766 126.612 14.8018 126.565 15.2608C126.518 15.7199 126.644 16.18 126.916 16.5521C127.189 16.9241 127.591 17.1817 128.043 17.2747C128.313 17.3292 128.592 17.323 128.859 17.2565C129.127 17.19 129.376 17.0649 129.589 16.8902C129.803 16.7155 129.974 16.4957 130.092 16.2465C130.21 15.9973 130.271 15.7251 130.271 15.4494C130.261 14.9643 130.062 14.5021 129.716 14.1617C129.37 13.8212 128.905 13.6295 128.42 13.6274V13.588ZM128.417 10.0055C127.404 10.0055 126.432 9.60296 125.715 8.88645C124.999 8.16994 124.596 7.19815 124.596 6.18485C124.596 5.17155 124.999 4.19975 125.715 3.48324C126.432 2.76673 127.404 2.3642 128.417 2.3642C129.43 2.3642 130.402 2.76673 131.118 3.48324C131.835 4.19975 132.237 5.17155 132.237 6.18485C132.237 7.19815 131.835 8.16994 131.118 8.88645C130.402 9.60296 129.43 10.0055 128.417 10.0055ZM128.417 4.33299C127.959 4.3362 127.519 4.50871 127.181 4.81727C126.843 5.12584 126.631 5.54862 126.586 6.00414C126.541 6.45966 126.666 6.91567 126.938 7.2843C127.209 7.65292 127.607 7.90807 128.055 8.00056C128.445 8.0794 128.85 8.03039 129.21 7.86083C129.57 7.69126 129.866 7.41017 130.053 7.05926C130.241 6.70836 130.31 6.30635 130.251 5.9129C130.192 5.51945 130.008 5.15553 129.725 4.87515C129.554 4.70324 129.35 4.56687 129.125 4.47384C128.901 4.38082 128.66 4.33295 128.417 4.33299ZM137.53 19.2712C136.772 19.273 136.03 19.0497 135.398 18.6295C134.767 18.2092 134.274 17.6109 133.983 16.9105C133.692 16.21 133.615 15.4389 133.763 14.6948C133.91 13.9507 134.275 13.2672 134.812 12.7308C135.348 12.1944 136.032 11.8293 136.776 11.6818C137.52 11.5342 138.291 11.6109 138.991 11.9021C139.692 12.1932 140.29 12.6858 140.71 13.3173C141.131 13.9488 141.354 14.6909 141.352 15.4494C141.352 16.463 140.95 17.4351 140.233 18.1518C139.516 18.8685 138.544 19.2712 137.53 19.2712ZM137.53 13.588C137.255 13.5861 136.982 13.6456 136.732 13.7621C136.482 13.8785 136.261 14.0491 136.086 14.2615C135.91 14.4739 135.783 14.7227 135.716 14.9899C135.648 15.2571 135.64 15.5361 135.693 15.8066C135.765 16.1675 135.943 16.499 136.203 16.7593C136.463 17.0197 136.794 17.1974 137.155 17.2699C137.515 17.3424 137.89 17.3065 138.23 17.1668C138.57 17.0272 138.862 16.7899 139.068 16.4849C139.273 16.1785 139.382 15.8181 139.382 15.4494C139.372 14.9642 139.173 14.502 138.827 14.1616C138.481 13.8212 138.016 13.6295 137.53 13.6274V13.588ZM137.532 10.0055C136.518 10.0055 135.546 9.60296 134.83 8.88645C134.113 8.16994 133.711 7.19815 133.711 6.18485C133.711 5.17155 134.113 4.19975 134.83 3.48324C135.546 2.76673 136.518 2.3642 137.532 2.3642C138.545 2.3642 139.517 2.76673 140.233 3.48324C140.95 4.19975 141.352 5.17155 141.352 6.18485C141.352 7.19815 140.95 8.16994 140.233 8.88645C139.517 9.60296 138.545 10.0055 137.532 10.0055ZM137.532 4.33299C137.074 4.3362 136.633 4.50871 136.295 4.81727C135.957 5.12584 135.745 5.54862 135.701 6.00414C135.656 6.45966 135.781 6.91567 136.052 7.2843C136.324 7.65292 136.722 7.90807 137.17 8.00056C137.439 8.05362 137.716 8.04654 137.981 7.97983C138.247 7.91313 138.494 7.78845 138.706 7.61476C138.917 7.44107 139.088 7.22267 139.205 6.97525C139.322 6.72784 139.383 6.45754 139.383 6.18378C139.383 5.693 139.187 5.22257 138.84 4.87563C138.493 4.52869 138.022 4.33355 137.532 4.33299ZM188.466 212.368C187.707 212.37 186.965 212.147 186.334 211.726C185.702 211.306 185.21 210.708 184.919 210.007C184.627 209.307 184.551 208.535 184.698 207.791C184.846 207.047 185.211 206.364 185.748 205.827C186.284 205.291 186.968 204.926 187.712 204.779C188.456 204.631 189.227 204.708 189.928 204.999C190.628 205.291 191.226 205.783 191.647 206.415C192.067 207.047 192.29 207.789 192.288 208.547C192.288 209.049 192.189 209.546 191.997 210.01C191.805 210.473 191.523 210.895 191.168 211.249C190.813 211.604 190.392 211.886 189.928 212.078C189.465 212.269 188.968 212.368 188.466 212.368ZM188.466 206.686C188.19 206.684 187.918 206.744 187.668 206.86C187.418 206.977 187.197 207.148 187.022 207.36C186.846 207.572 186.719 207.821 186.652 208.088C186.584 208.355 186.576 208.634 186.629 208.905C186.7 209.266 186.877 209.599 187.136 209.86C187.397 210.121 187.729 210.299 188.09 210.371C188.451 210.443 188.826 210.407 189.167 210.267C189.508 210.127 189.799 209.889 190.004 209.583C190.209 209.276 190.318 208.916 190.318 208.547C190.32 208.302 190.274 208.059 190.182 207.832C190.09 207.604 189.954 207.397 189.782 207.222C189.61 207.048 189.406 206.909 189.18 206.813C188.954 206.717 188.711 206.667 188.466 206.666V206.686Z" fill="#10393E"/>
<path d="M140.086 218.199H101.597L81.84 198.443H65.1765V197.458H82.2536L102.001 217.215H140.086V218.199ZM140.086 208.989H123.983L98.7108 183.707H65.1765V182.723H99.1148L124.397 208.004H140.086V208.989ZM76.748 164.057H65.1765V163.073H76.3451L81.5445 157.863L82.244 158.562L76.748 164.057Z" fill="#10393E"/>
<path d="M79.4662 168.965H65.1765V167.98H79.0527L88.8222 158.22L89.5132 158.919L79.4662 168.965ZM173.883 164.936H119.754L99.8791 145.061V124.615H100.865V144.657L120.168 163.951H173.883V164.936Z" fill="#10393E"/>
<path d="M173.881 151.719H127.217L114.492 138.994V124.615H115.477V138.581L127.63 150.734H173.881V151.719Z" fill="#10393E"/>
<path d="M173.882 146.824H130.497L119.467 135.793V124.615H120.451V135.39L130.911 145.839H173.882V146.824ZM170.79 205.699H169.805V200.519L163.443 194.157V184.268L169.145 178.575H173.883V179.561H169.549L164.428 184.682V193.753L170.79 200.106V205.699ZM216.754 169.733H210.55V168.748H216.35L223.58 161.52L224.269 162.218L216.754 169.733ZM30.9181 163.074H18.8045V164.059H30.9181V163.074ZM13.9261 208.686L13.2267 207.986L23.7552 197.458H30.915V198.443H24.1688L13.9261 208.686ZM21.0646 208.536L20.3651 207.836L25.5561 202.646H30.9139V203.631H25.9696L21.0646 208.536ZM30.9181 187.635H18.8045V188.619H30.9181V187.635ZM81.673 173.889H65.1764V172.904H81.2691L95.7172 158.446L96.4166 159.146L81.672 173.889H81.673ZM13.6019 97.3521H12.6165V91.8273L18.4771 85.9667H42.547V86.9521H18.88L13.6019 92.2313V97.3521ZM50.672 143.673H33.546L12.6165 122.744V117.366H13.6019V122.34L33.9489 142.689H50.2585L55.5376 137.409V124.615H56.5231V137.823L50.672 143.673ZM13.6019 52.5312H12.6165V47.4094L18.2305 41.7964H42.547V42.7808H18.6355L13.603 47.8229L13.6019 52.5312ZM42.547 82.0174H18.7238L12.6165 75.9111V72.4158H13.6019V75.5093L19.1267 81.034H42.547V82.0174ZM42.5459 110.569H30.1081V111.554H42.5459V110.569Z" fill="#10393E"/>
<path d="M30.5141 120.726L29.8252 120.036L34.3645 115.486H42.5501V116.47H34.7791L30.5141 120.726ZM60.637 148.764L59.9481 148.065L70.3385 137.674V124.615H71.3229V138.089L60.637 148.764ZM69.9367 148.646L69.2372 147.946L75.2541 141.939V124.615H76.2396V142.343L69.9367 148.646ZM216.784 73.2928H198.151V72.3074H216.37L222.033 66.6444V63.4627L214.125 55.5641H210.55V54.5797H214.539L223.019 63.0492V67.058L216.784 73.2928ZM222.595 49.6631H210.55V50.6475H222.595V49.6631ZM214.696 45.7351H210.55V44.7496H214.292L222.25 36.7915L222.95 37.4814L214.696 45.7351ZM216.065 146.804H210.55V145.819H215.661L218.183 143.298V116.755L210.343 108.926H198.151V107.94H210.756L219.167 116.351V143.711L216.065 146.804Z" fill="#10393E"/>
<path d="M216.704 151.678H210.549V150.694H216.291L222.663 144.322V115.1L207.565 100.001H198.445V99.017H207.969L223.648 114.696V144.735L216.704 151.678ZM215.147 222.886H203.337L198.758 218.296H191.302V217.311H199.162L203.752 221.901H215.147V222.886ZM215.159 226.58H192.22V227.565H215.159V226.58ZM179.85 205.7H178.866V200.322L187.582 191.606H214.558L218.882 187.282V182.387L216.085 179.59H210.549V178.605H216.489L219.866 181.973V187.696L214.972 192.59H187.986L179.85 200.726V205.7ZM215.147 218.229H206.263L197.074 209.03H191.302V208.045H197.487L206.677 217.243H215.147V218.229ZM234.108 21.1636H233.123V24.7195H234.108V21.1636ZM228.923 27.9969C228.651 27.9966 228.382 27.936 228.136 27.8195C227.89 27.703 227.673 27.5335 227.501 27.3231C227.328 27.1127 227.204 26.8667 227.138 26.6027C227.071 26.3388 227.064 26.0634 227.117 25.7964C227.201 25.3432 227.452 24.9381 227.82 24.6611C228.188 24.384 228.647 24.2554 229.106 24.3006C229.564 24.3458 229.989 24.5615 230.297 24.905C230.604 25.2486 230.771 25.6949 230.764 26.1557C230.764 26.644 230.57 27.1124 230.225 27.4577C229.88 27.803 229.412 27.9969 228.923 27.9969ZM228.923 25.2989C228.696 25.2989 228.478 25.3892 228.317 25.5498C228.157 25.7105 228.066 25.9285 228.066 26.1557C228.066 26.383 228.157 26.6009 228.317 26.7616C228.478 26.9223 228.696 27.0125 228.923 27.0125C229.151 27.0125 229.369 26.9222 229.529 26.7614C229.69 26.6006 229.781 26.3826 229.781 26.1552C229.781 25.9278 229.69 25.7097 229.529 25.5489C229.369 25.3882 229.151 25.2989 228.923 25.2989Z" fill="#10393E"/>
<path d="M229.415 21.1636H228.431V24.7195H229.415V21.1636ZM186.782 27.9969C186.294 27.9968 185.825 27.8026 185.48 27.457C185.134 27.1114 184.94 26.6427 184.94 26.1541C184.941 25.6655 185.135 25.197 185.48 24.8516C185.826 24.5062 186.295 24.3122 186.783 24.3124C187.025 24.3124 187.265 24.3602 187.488 24.4528C187.712 24.5455 187.915 24.6812 188.086 24.8523C188.257 25.0235 188.392 25.2266 188.485 25.4501C188.577 25.6737 188.625 25.9133 188.625 26.1552C188.625 26.3971 188.577 26.6367 188.485 26.8602C188.392 27.0836 188.256 27.2867 188.085 27.4577C187.914 27.6287 187.711 27.7644 187.487 27.8569C187.264 27.9494 187.024 27.997 186.782 27.9969ZM186.782 25.2989C186.613 25.2994 186.448 25.3498 186.307 25.4438C186.166 25.5377 186.057 25.6711 185.991 25.8272C185.927 25.9838 185.91 26.1558 185.944 26.3217C185.977 26.4876 186.059 26.64 186.178 26.7596C186.298 26.8793 186.45 26.9609 186.616 26.9941C186.782 27.0274 186.954 27.0109 187.111 26.9466C187.267 26.8821 187.401 26.7724 187.495 26.6316C187.589 26.4907 187.639 26.3251 187.639 26.1557C187.638 25.9287 187.548 25.7111 187.388 25.5498C187.227 25.39 187.009 25.2999 186.782 25.2989Z" fill="#10393E"/>
<path d="M187.276 21.1636H186.29V24.7195H187.276V21.1636ZM30.1378 211.529C29.7737 211.529 29.4179 211.42 29.1153 211.218C28.8126 211.016 28.5766 210.728 28.4369 210.392C28.2859 210.027 28.2564 209.623 28.3525 209.24C28.4487 208.857 28.6655 208.515 28.9709 208.264C29.2764 208.014 29.6543 207.868 30.0488 207.849C30.4433 207.83 30.8335 207.938 31.1619 208.158C31.4902 208.377 31.7392 208.697 31.8722 209.069C32.0051 209.441 32.0149 209.845 31.9001 210.223C31.7853 210.601 31.552 210.932 31.2347 211.167C30.9174 211.403 30.5328 211.53 30.1378 211.529ZM30.1378 208.83C29.9683 208.83 29.8026 208.88 29.6617 208.975C29.5209 209.069 29.4113 209.203 29.3469 209.36C29.298 209.477 29.2757 209.603 29.2818 209.73C29.2878 209.856 29.3219 209.98 29.3816 210.092C29.4413 210.204 29.5252 210.301 29.6271 210.376C29.7291 210.452 29.8465 210.504 29.9709 210.528C30.0888 210.553 30.2105 210.552 30.3281 210.527C30.4457 210.501 30.5567 210.451 30.6537 210.38C30.7507 210.308 30.8317 210.218 30.8913 210.113C30.9509 210.008 30.9878 209.892 30.9997 209.773C31.0115 209.653 30.998 209.532 30.9601 209.418C30.9221 209.303 30.8605 209.198 30.7793 209.11C30.6982 209.021 30.5992 208.95 30.4888 208.902C30.3785 208.854 30.2582 208.829 30.1378 208.83Z" fill="#10393E"/>
<path d="M30.6311 211.116H29.6467V214.671H30.6311V211.116ZM34.8153 211.529C34.543 211.529 34.2742 211.468 34.0281 211.352C33.782 211.235 33.5648 211.066 33.392 210.855C33.2192 210.645 33.0952 210.399 33.0288 210.135C32.9625 209.87 32.9554 209.595 33.0081 209.328C33.0781 208.97 33.253 208.641 33.5106 208.382C33.7681 208.124 34.0968 207.948 34.4547 207.877C34.8125 207.805 35.1835 207.842 35.5203 207.983C35.8571 208.123 36.1446 208.36 36.3462 208.664C36.5324 208.942 36.6397 209.264 36.6565 209.597C36.6734 209.931 36.5991 210.263 36.4418 210.557C36.2845 210.851 36.05 211.098 35.7635 211.269C35.4769 211.44 35.1492 211.53 34.8153 211.529ZM34.8153 208.83C34.6455 208.83 34.4793 208.88 34.338 208.974C34.1967 209.068 34.0868 209.203 34.0223 209.36C33.9734 209.477 33.9512 209.603 33.9572 209.73C33.9633 209.857 33.9975 209.98 34.0574 210.092C34.1172 210.204 34.2012 210.301 34.3033 210.377C34.4053 210.452 34.5229 210.504 34.6474 210.528C34.7653 210.553 34.887 210.552 35.0047 210.526C35.1223 210.501 35.2333 210.451 35.3303 210.379C35.4274 210.308 35.5083 210.217 35.5679 210.113C35.6275 210.008 35.6644 209.892 35.6761 209.772C35.6879 209.652 35.6743 209.531 35.6363 209.417C35.5982 209.303 35.5365 209.198 35.4552 209.109C35.3739 209.02 35.2749 208.949 35.1644 208.901C35.054 208.853 34.9358 208.829 34.8153 208.83Z" fill="#10393E"/>
<path d="M35.3119 211.116H34.3264V214.671H35.3119V211.116ZM39.4738 211.529C39.2015 211.529 38.9326 211.469 38.6865 211.352C38.4404 211.235 38.2232 211.066 38.0504 210.855C37.8777 210.645 37.7536 210.399 37.6873 210.135C37.6209 209.871 37.6138 209.595 37.6666 209.328C37.7542 208.878 38.0065 208.477 38.3741 208.203C38.7417 207.93 39.1981 207.803 39.6542 207.848C40.1103 207.893 40.5333 208.106 40.8404 208.446C41.1475 208.786 41.3168 209.229 41.315 209.687C41.313 210.175 41.1185 210.642 40.7736 210.987C40.4288 211.332 39.9616 211.527 39.4738 211.529ZM39.4738 208.83C39.3041 208.83 39.1381 208.88 38.9971 208.974C38.856 209.069 38.7462 209.203 38.6818 209.36C38.6329 209.477 38.6107 209.603 38.6167 209.73C38.6228 209.857 38.657 209.981 38.7168 210.092C38.7767 210.204 38.8607 210.301 38.9627 210.377C39.0648 210.452 39.1823 210.504 39.3069 210.528C39.4248 210.553 39.5465 210.552 39.6642 210.527C39.7818 210.501 39.8928 210.451 39.9898 210.38C40.0869 210.308 40.1678 210.217 40.2274 210.113C40.287 210.008 40.3238 209.892 40.3356 209.772C40.3474 209.652 40.3338 209.531 40.2958 209.417C40.2577 209.303 40.196 209.198 40.1147 209.109C40.0334 209.02 39.9343 208.949 39.8239 208.901C39.7135 208.853 39.5942 208.829 39.4738 208.83Z" fill="#10393E"/>
<path d="M39.9913 211.116H39.0059V214.671H39.9913V211.116ZM44.183 211.529C43.9107 211.529 43.6418 211.468 43.3957 211.352C43.1496 211.235 42.9324 211.066 42.7596 210.855C42.5869 210.645 42.4628 210.399 42.3965 210.135C42.3301 209.87 42.323 209.595 42.3758 209.328C42.4457 208.97 42.6206 208.641 42.8782 208.382C43.1358 208.124 43.4644 207.948 43.8223 207.877C44.1802 207.805 44.5511 207.842 44.8879 207.983C45.2248 208.123 45.5122 208.36 45.7138 208.664C45.9 208.942 46.0073 209.264 46.0241 209.597C46.041 209.931 45.9668 210.263 45.8095 210.557C45.6521 210.851 45.4176 211.098 45.1311 211.269C44.8446 211.44 44.5168 211.53 44.183 211.529ZM44.183 208.83C44.0133 208.83 43.8473 208.88 43.7063 208.974C43.5652 209.069 43.4554 209.203 43.391 209.36C43.3421 209.477 43.3198 209.603 43.3258 209.73C43.3318 209.856 43.366 209.98 43.4257 210.092C43.4854 210.204 43.5693 210.301 43.6712 210.376C43.7732 210.452 43.8906 210.504 44.015 210.528C44.1329 210.553 44.2546 210.552 44.3722 210.527C44.4898 210.501 44.6008 210.451 44.6978 210.38C44.7948 210.308 44.8758 210.218 44.9354 210.113C44.995 210.008 45.0319 209.892 45.0438 209.773C45.0556 209.653 45.0421 209.532 45.0042 209.418C44.9662 209.303 44.9046 209.198 44.8234 209.11C44.7423 209.021 44.6433 208.95 44.5329 208.902C44.4226 208.854 44.3033 208.829 44.183 208.83Z" fill="#10393E"/>
<path d="M44.6709 211.116H43.6865V214.671H44.6709V211.116ZM48.8711 211.529C48.507 211.529 48.1512 211.42 47.8486 211.218C47.5459 211.016 47.3099 210.728 47.1702 210.392C47.065 210.14 47.017 209.868 47.0297 209.596C47.0425 209.323 47.1156 209.057 47.2439 208.816C47.3721 208.575 47.5523 208.366 47.7714 208.203C47.9904 208.04 48.2429 207.928 48.5105 207.875C48.7781 207.822 49.0543 207.828 49.3189 207.895C49.5836 207.961 49.8302 208.086 50.0408 208.259C50.2515 208.433 50.4211 208.651 50.5372 208.898C50.6533 209.145 50.7131 209.414 50.7123 209.687C50.7103 210.175 50.5158 210.642 50.1709 210.987C49.8261 211.332 49.3589 211.527 48.8711 211.529ZM48.8711 208.83C48.7014 208.83 48.5354 208.88 48.3944 208.974C48.2533 209.069 48.1435 209.203 48.0791 209.36C48.0302 209.477 48.008 209.603 48.0141 209.73C48.0201 209.857 48.0543 209.98 48.1142 210.092C48.174 210.204 48.258 210.301 48.3601 210.377C48.4621 210.452 48.5797 210.504 48.7042 210.528C48.8284 210.553 48.9566 210.549 49.0794 210.518C49.2022 210.487 49.3167 210.43 49.4145 210.349C49.5124 210.269 49.5913 210.168 49.6454 210.053C49.6996 209.939 49.7278 209.814 49.7279 209.687C49.7257 209.461 49.6347 209.244 49.4745 209.084C49.3143 208.924 49.0976 208.833 48.8711 208.83Z" fill="#10393E"/>
<path d="M49.3633 211.116H48.3789V214.671H49.3633V211.116ZM53.5465 211.529C53.2742 211.529 53.0055 211.468 52.7596 211.352C52.5136 211.235 52.2965 211.065 52.1238 210.855C51.9512 210.644 51.8273 210.398 51.761 210.134C51.6946 209.87 51.6876 209.595 51.7403 209.328C51.8103 208.97 51.9852 208.641 52.2427 208.382C52.5003 208.124 52.829 207.948 53.1868 207.877C53.5447 207.805 53.9157 207.842 54.2525 207.983C54.5893 208.123 54.8768 208.36 55.0783 208.664C55.2645 208.942 55.3718 209.264 55.3887 209.597C55.4055 209.931 55.3313 210.263 55.174 210.557C55.0167 210.851 54.7822 211.098 54.4956 211.269C54.2091 211.44 53.8803 211.53 53.5465 211.529ZM53.5465 208.83C53.377 208.83 53.2112 208.88 53.0704 208.975C52.9295 209.069 52.8199 209.203 52.7555 209.36C52.7066 209.477 52.6844 209.603 52.6904 209.73C52.6964 209.856 52.7305 209.98 52.7902 210.092C52.85 210.204 52.9338 210.301 53.0358 210.376C53.1377 210.452 53.2551 210.504 53.3796 210.528C53.4974 210.553 53.6192 210.552 53.7369 210.526C53.8545 210.501 53.9655 210.451 54.0625 210.379C54.1596 210.308 54.2405 210.217 54.3001 210.113C54.3597 210.008 54.3965 209.892 54.4083 209.772C54.4201 209.652 54.4065 209.531 54.3685 209.417C54.3304 209.303 54.2687 209.198 54.1874 209.109C54.1061 209.02 54.007 208.949 53.8966 208.901C53.7862 208.853 53.6669 208.829 53.5465 208.83Z" fill="#10393E"/>
<path d="M54.0441 211.116H53.0586V214.671H54.0441V211.116ZM182.097 27.9969C181.734 27.9953 181.378 27.8857 181.077 27.6821C180.775 27.4785 180.54 27.19 180.403 26.853C180.265 26.5164 180.229 26.1463 180.301 25.7896C180.373 25.4329 180.55 25.1056 180.808 24.8492C181.023 24.6358 181.287 24.4787 181.577 24.3918C181.867 24.305 182.174 24.291 182.471 24.3512C182.768 24.4114 183.045 24.5438 183.279 24.7368C183.512 24.9299 183.694 25.1775 183.809 25.4577C183.924 25.7379 183.968 26.0422 183.937 26.3435C183.906 26.6447 183.801 26.9337 183.632 27.1848C183.463 27.436 183.234 27.6415 182.966 27.7831C182.699 27.9247 182.4 27.9982 182.097 27.9969ZM182.097 25.2988C181.971 25.3007 181.847 25.3304 181.734 25.3857C181.62 25.441 181.52 25.5205 181.441 25.6187C181.362 25.7169 181.305 25.8314 181.275 25.9539C181.245 26.0765 181.242 26.2042 181.267 26.3279C181.302 26.4932 181.385 26.6446 181.505 26.7634C181.625 26.8822 181.778 26.9633 181.943 26.9965C182.067 27.0211 182.195 27.0178 182.318 26.9869C182.441 26.9559 182.555 26.8982 182.653 26.8177C182.75 26.7373 182.829 26.6362 182.883 26.5217C182.936 26.4072 182.964 26.2822 182.964 26.1557C182.964 26.0424 182.941 25.9303 182.897 25.8259C182.853 25.7214 182.789 25.6267 182.709 25.547C182.628 25.4674 182.533 25.4045 182.428 25.3619C182.323 25.3193 182.211 25.2979 182.097 25.2988Z" fill="#10393E"/>
<path d="M182.587 21.1636H181.602V24.7195H182.587V21.1636ZM177.415 27.9969C177.142 27.9966 176.874 27.936 176.628 27.8195C176.382 27.703 176.165 27.5335 175.992 27.3231C175.819 27.1127 175.695 26.8667 175.629 26.6027C175.563 26.3388 175.556 26.0634 175.608 25.7964C175.692 25.3432 175.943 24.9381 176.311 24.6611C176.68 24.384 177.139 24.2554 177.597 24.3006C178.056 24.3458 178.481 24.5615 178.788 24.905C179.095 25.2486 179.262 25.6949 179.256 26.1557C179.256 26.644 179.062 27.1124 178.717 27.4577C178.371 27.803 177.903 27.9969 177.415 27.9969ZM177.415 25.2989C177.288 25.2984 177.162 25.3262 177.048 25.3802C176.933 25.4342 176.832 25.5131 176.751 25.6111C176.671 25.7091 176.613 25.8238 176.582 25.9469C176.552 26.0699 176.549 26.1983 176.574 26.3226C176.607 26.4889 176.688 26.6416 176.808 26.7614C176.928 26.8812 177.08 26.9627 177.247 26.9955C177.364 27.0193 177.485 27.0181 177.602 26.9922C177.719 26.9662 177.829 26.9161 177.926 26.8449C178.022 26.7737 178.102 26.6831 178.161 26.5789C178.221 26.4748 178.257 26.3593 178.269 26.2401C178.281 26.1209 178.268 26.0005 178.23 25.8868C178.192 25.7731 178.131 25.6685 178.051 25.5798C177.97 25.4911 177.872 25.4202 177.763 25.3719C177.653 25.3235 177.534 25.2986 177.415 25.2989Z" fill="#10393E"/>
<path d="M177.907 21.1636H176.922V24.7195H177.907V21.1636ZM172.724 27.9969C172.452 27.9952 172.184 27.9334 171.939 27.8158C171.694 27.6983 171.478 27.5279 171.306 27.317C171.134 27.106 171.012 26.8597 170.946 26.5957C170.881 26.3318 170.875 26.0566 170.929 25.79C170.998 25.4481 171.163 25.1329 171.405 24.8811C171.646 24.6294 171.954 24.4514 172.293 24.3679C172.632 24.2845 172.987 24.299 173.318 24.4098C173.649 24.5206 173.941 24.7231 174.162 24.9937C174.382 25.2644 174.521 25.592 174.562 25.9384C174.603 26.2849 174.545 26.6359 174.394 26.9506C174.244 27.2653 174.007 27.5307 173.711 27.716C173.415 27.9012 173.073 27.9987 172.724 27.9969ZM172.724 25.2989C172.608 25.2946 172.493 25.314 172.385 25.3557C172.276 25.3975 172.178 25.4608 172.095 25.5418C172.012 25.6228 171.946 25.7198 171.901 25.827C171.857 25.9342 171.835 26.0493 171.836 26.1653C171.838 26.2813 171.862 26.3958 171.909 26.5019C171.956 26.608 172.024 26.7034 172.109 26.7824C172.194 26.8615 172.294 26.9224 172.404 26.9616C172.513 27.0008 172.629 27.0174 172.745 27.0104C172.964 26.9972 173.17 26.8999 173.32 26.7388C173.47 26.5777 173.552 26.3651 173.55 26.145C173.547 25.925 173.46 25.7144 173.306 25.5568C173.153 25.3993 172.944 25.3069 172.724 25.2989Z" fill="#10393E"/>
<path d="M173.223 21.1636H172.239V24.7195H173.223V21.1636ZM214.887 27.9969C214.524 27.9905 214.171 27.8772 213.872 27.6713C213.573 27.4654 213.342 27.176 213.207 26.8393C213.035 26.4159 213.026 25.9436 213.183 25.5143C213.34 25.085 213.651 24.7294 214.055 24.5167C214.46 24.3041 214.929 24.2496 215.372 24.3639C215.814 24.4783 216.198 24.7532 216.449 25.1352C216.686 25.4915 216.791 25.9191 216.747 26.3447C216.703 26.7702 216.513 27.1672 216.208 27.4675C216.034 27.6389 215.827 27.774 215.6 27.8649C215.373 27.9557 215.131 28.0006 214.887 27.9969ZM214.887 25.2978C214.717 25.2984 214.552 25.349 214.411 25.4431C214.27 25.5373 214.161 25.6709 214.096 25.8272C214.031 25.9838 214.015 26.1558 214.048 26.3217C214.081 26.4876 214.163 26.64 214.283 26.7596C214.402 26.8793 214.555 26.9609 214.72 26.9941C214.886 27.0274 215.058 27.0109 215.215 26.9466C215.372 26.8821 215.506 26.7723 215.6 26.6313C215.694 26.4902 215.744 26.3242 215.743 26.1547C215.742 25.9276 215.652 25.71 215.492 25.5487C215.331 25.3889 215.114 25.2988 214.887 25.2978Z" fill="#10393E"/>
<path d="M215.371 21.1636H214.387V24.7195H215.371V21.1636ZM210.191 27.9969C209.919 27.9966 209.65 27.936 209.404 27.8195C209.158 27.703 208.941 27.5335 208.768 27.3231C208.596 27.1127 208.472 26.8667 208.405 26.6027C208.339 26.3388 208.332 26.0634 208.385 25.7964C208.469 25.3432 208.719 24.9381 209.088 24.6611C209.456 24.384 209.915 24.2554 210.374 24.3006C210.832 24.3458 211.257 24.5615 211.564 24.905C211.871 25.2486 212.038 25.6949 212.032 26.1557C212.032 26.644 211.838 27.1124 211.493 27.4577C211.148 27.803 210.679 27.9969 210.191 27.9969ZM210.191 25.2989C210.064 25.2984 209.939 25.3262 209.824 25.3802C209.709 25.4342 209.608 25.5131 209.527 25.6111C209.447 25.7091 209.389 25.8238 209.359 25.9469C209.328 26.0699 209.325 26.1983 209.35 26.3226C209.383 26.4889 209.464 26.6416 209.584 26.7614C209.704 26.8812 209.857 26.9627 210.023 26.9955C210.14 27.0193 210.262 27.0181 210.378 26.9922C210.495 26.9662 210.606 26.9161 210.702 26.8449C210.798 26.7737 210.879 26.6831 210.938 26.5789C210.997 26.4748 211.034 26.3593 211.045 26.2401C211.057 26.1209 211.044 26.0005 211.006 25.8868C210.969 25.7731 210.908 25.6685 210.827 25.5798C210.747 25.4911 210.648 25.4202 210.539 25.3719C210.429 25.3235 210.311 25.2986 210.191 25.2989Z" fill="#10393E"/>
<path d="M210.683 21.1636H209.699V24.7195H210.683V21.1636ZM205.515 27.9969C205.026 27.9968 204.557 27.8026 204.212 27.457C203.867 27.1114 203.673 26.6427 203.673 26.1541C203.673 25.6655 203.867 25.197 204.213 24.8516C204.558 24.5062 205.027 24.3122 205.516 24.3124C206.004 24.3125 206.473 24.5067 206.818 24.8523C207.164 25.1979 207.358 25.6666 207.357 26.1552C207.357 26.6438 207.163 27.1123 206.817 27.4577C206.472 27.8031 206.003 27.9971 205.515 27.9969ZM205.515 25.2989C205.345 25.2986 205.18 25.3486 205.039 25.4427C204.898 25.5368 204.788 25.6706 204.724 25.8272C204.659 25.9838 204.643 26.1558 204.676 26.3217C204.709 26.4876 204.791 26.64 204.911 26.7596C205.03 26.8793 205.183 26.9609 205.349 26.9941C205.515 27.0274 205.687 27.0109 205.843 26.9466C206 26.8821 206.134 26.7724 206.228 26.6316C206.322 26.4907 206.372 26.3251 206.371 26.1557C206.37 25.9287 206.28 25.7111 206.121 25.5498C206.041 25.4701 205.947 25.407 205.843 25.3639C205.739 25.3208 205.627 25.2988 205.515 25.2989Z" fill="#10393E"/>
<path d="M206.012 21.1636H205.027V24.7195H206.012V21.1636ZM200.83 27.9969C200.466 27.9953 200.11 27.8858 199.809 27.6822C199.507 27.4786 199.273 27.19 199.135 26.8531C198.997 26.5165 198.961 26.1464 199.034 25.7897C199.106 25.433 199.282 25.1057 199.54 24.8492C199.755 24.6358 200.019 24.4787 200.309 24.3919C200.599 24.305 200.907 24.291 201.203 24.3512C201.5 24.4114 201.778 24.5439 202.011 24.7369C202.244 24.9299 202.426 25.1775 202.541 25.4578C202.656 25.738 202.7 26.0422 202.669 26.3435C202.638 26.6448 202.534 26.9338 202.364 27.1849C202.195 27.436 201.966 27.6415 201.699 27.7832C201.431 27.9248 201.132 27.9982 200.83 27.9969ZM200.83 25.2989C200.66 25.3004 200.496 25.3522 200.356 25.4476C200.216 25.5429 200.108 25.6777 200.045 25.8347C199.981 25.9913 199.965 26.1634 199.999 26.3292C200.033 26.495 200.115 26.6471 200.235 26.766C200.356 26.885 200.509 26.9656 200.675 26.9975C200.841 27.0295 201.013 27.0114 201.169 26.9456C201.324 26.8798 201.457 26.7698 201.551 26.6292C201.645 26.4886 201.695 26.3236 201.696 26.1547C201.696 26.0414 201.673 25.9293 201.629 25.8249C201.586 25.7204 201.522 25.6256 201.441 25.546C201.361 25.4664 201.265 25.4035 201.16 25.3609C201.055 25.3183 200.943 25.2979 200.83 25.2989Z" fill="#10393E"/>
<path d="M201.324 21.1636H200.339V24.7195H201.324V21.1636ZM196.155 27.998C195.793 27.9887 195.442 27.8728 195.146 27.6648C194.85 27.4567 194.621 27.1659 194.49 26.8286C194.345 26.4601 194.323 26.0548 194.427 25.6729C194.531 25.2909 194.755 24.9526 195.066 24.7079C195.378 24.4633 195.759 24.3255 196.155 24.3148C196.551 24.3041 196.939 24.4211 197.263 24.6485C197.587 24.876 197.829 25.2017 197.954 25.5775C198.078 25.9533 198.078 26.3591 197.954 26.7349C197.83 27.1107 197.588 27.4365 197.264 27.664C196.94 27.8915 196.551 28.0086 196.155 27.998ZM196.155 25.3C195.986 25.3005 195.82 25.351 195.68 25.4452C195.539 25.5393 195.429 25.673 195.363 25.8294C195.293 25.9994 195.279 26.1876 195.324 26.3662C195.368 26.5448 195.469 26.7042 195.612 26.821C195.754 26.9378 195.93 27.0057 196.114 27.0147C196.298 27.0237 196.48 26.9734 196.633 26.8711C196.786 26.7688 196.902 26.62 196.964 26.4466C197.026 26.2733 197.03 26.0846 196.977 25.9085C196.923 25.7323 196.815 25.5781 196.667 25.4685C196.519 25.3589 196.339 25.2998 196.155 25.3Z" fill="#10393E"/>
<path d="M196.643 21.1634H195.659V24.7193H196.643V21.1634ZM76.3055 33.6501H75.32V22.3338L64.8021 11.8148H21.5652V10.8293H65.205L76.3066 21.9309L76.3055 33.6501ZM218.416 35.907H210.33V34.9226H218.002L223.753 29.249V21.1634H224.739V29.6626L218.416 35.907ZM51.6733 33.6512H50.6889V30.2834L46.2665 25.8611H21.5652V24.8756H46.6694L51.6733 29.8794V33.6512Z" fill="#10393E"/>
<path d="M56.5782 33.6502H55.5928V29.7126L47.0447 21.1634H21.5652V20.178H47.4582L56.5782 29.3086V33.6512V33.6502Z" fill="#10393E"/>
<path d="M71.3209 33.6523H70.3365V25.5762L61.1868 16.4264H21.5664V15.4409H61.5907L71.322 25.1722V33.6523H71.3209Z" fill="#10393E"/>
<path d="M90.9704 33.6522H89.985V23.3012L73.8434 7.14899L21.5652 7.13836V6.15503L74.2463 6.16566L90.9704 22.8876V33.6522Z" fill="#10393E"/>
<path d="M95.8851 33.6503H94.8997V22.4127L75.233 2.74282L21.5664 2.44729V1.46289L75.6465 1.76799L95.8862 21.9981V33.6493L95.8851 33.6503ZM110.694 18.288H109.708V33.6524H110.694V18.288ZM125.368 33.6524H124.384V28.5008L127.939 24.9449V18.2869H128.924V25.3489L125.368 28.9037V33.6524ZM115.535 33.6503H114.55V28.2925L118.894 23.9499V18.0605H119.878V24.3538L115.535 28.6964V33.6503ZM153.557 52.5494H133.515V51.5651H153.153L163.209 41.5191V20.3535L149.529 6.67403H140.37V5.68963H149.933L164.194 19.94V41.9231L153.557 52.5494Z" fill="#10393E"/>
<path opacity="0.5" d="M236 225.554H219.711V228.587H236V225.554ZM219.706 226.491H215.147V227.662H219.706V226.491ZM236 220.866H219.711V223.899H236V220.866ZM219.706 221.803H215.147V222.974H219.706V221.803ZM236 216.188H219.711V219.222H236V216.188ZM219.706 217.122H215.147V218.295H219.706V217.122ZM0.712276 26.8955H17.0016V23.8625H0.712276V26.8965V26.8955ZM17.0058 25.9578H21.5664V24.7863H17.0058V25.9578ZM0.712276 22.2063H17.0016V19.1723H0.712276V22.2063ZM17.0058 21.2697H21.5664V20.0972H17.0058V21.2697ZM0.712276 17.5299H17.0016V14.497H0.712276V17.5299ZM17.0058 16.5912H21.5664V15.4197H17.0058V16.5912ZM0.712276 12.8375H17.0016V9.80459H0.712276V12.8375ZM17.0058 11.9031H21.5664V10.7316H17.0058V11.9031ZM0.712276 8.16216H17.0016V5.12818H0.712276V8.16216ZM17.0058 7.2256H21.5664V6.05304H17.0058V7.2256ZM0.712276 3.47192H17.0016V0.437941H0.712276V3.47192ZM17.0058 2.53749H21.5664V1.36493H17.0058V2.53749ZM31.6559 235.493V219.202H28.623V235.493H31.6559ZM30.7172 219.201V214.641H29.5457V219.201H30.7172ZM36.3323 235.493V219.202H33.2983V235.493H36.3323ZM35.3979 219.201V214.641H34.2253V219.201H35.3979ZM41.0162 235.493V219.202H37.9833V235.493H41.0162ZM40.086 219.201V214.641H38.9145V219.201H40.086ZM45.6958 235.493V219.202H42.6629V235.493H45.6958ZM44.7656 219.201V214.641H43.5941V219.201H44.7656ZM50.3765 235.493V219.202H47.3425V235.493H50.3765ZM49.4505 219.201V214.641H48.278V219.201H49.4505ZM55.0688 235.493V219.202H52.0348V235.493H55.0688ZM54.1301 219.193V214.632H52.9586V219.193H54.1301ZM8.23132 235.493V219.202H5.1984V235.493H8.23132ZM7.30965 219.201V214.641H6.13709V219.201H7.30965ZM3.55065 235.493V219.202H0.518799V235.493H3.55278H3.55065ZM2.62579 219.193V214.632H1.45323V219.193H2.62579ZM204.001 0.3125V16.6018H207.035V0.3125H204.001ZM204.923 16.6039V21.1645H206.095V16.6039H204.923ZM199.313 0.3125V16.6018H202.347V0.3125H199.313ZM200.247 16.6039V21.1645H201.42V16.6039H200.247ZM194.633 0.3125V16.6018H197.666V0.3125H194.633ZM195.559 16.6146V21.174H196.73V16.6135L195.559 16.6146ZM185.264 0.3125V16.6018H188.298V0.3125H185.264ZM186.191 16.6146V21.174H187.363V16.6135L186.191 16.6146ZM180.58 0.322068V16.6124H183.614V0.322068H180.58Z" fill="#10393E"/>
<path opacity="0.5" d="M181.515 16.6039V21.1645H182.687V16.6039H181.515ZM175.901 0.3125V16.6018H178.934V0.3125H175.901ZM176.827 16.6146V21.174H177.998V16.6135L176.827 16.6146ZM171.213 0.322068V16.6124H174.246V0.322068H171.213Z" fill="#10393E"/>
<path opacity="0.5" d="M172.15 16.6039V21.1645H173.323V16.6039H172.15ZM208.677 0.3125V16.6018H211.71V0.3125H208.677ZM209.616 16.6039V21.1645H210.787V16.6039H209.616ZM213.365 0.3125V16.6018H216.398V0.3125H213.365ZM214.291 16.6039V21.1645H215.464V16.6039H214.291ZM222.73 0.3125V16.6018H225.763V0.3125H222.73ZM223.66 16.6039V21.1645H224.832V16.6039H223.66ZM227.405 0.3125V16.6018H230.439V0.3125H227.405ZM228.34 16.6039V21.1645H229.511V16.6039H228.34ZM232.085 0.3125V16.6018H235.119V0.3125H232.085ZM233.024 16.6039V21.1645H234.196V16.6039H233.024Z" fill="#10393E"/>
<path d="M2.60973 214.642H1.62427V184.475L18.1124 167.979H30.9138V168.963H18.5248L2.60973 184.889V214.642Z" fill="#10393E"/>
<path d="M7.27655 214.642H6.29321V186.071L19.4996 172.854H30.9138V173.838H19.9036L7.27655 186.475V214.642ZM155.55 179.778L154.851 179.078L160.278 173.661H173.879V174.646H160.682L155.55 179.778ZM143.42 205.697H142.434V191.358L147.536 186.256L148.236 186.956L143.42 191.771V205.697ZM63.6231 225.614V225.959C63.6231 225.851 63.6125 225.733 63.6231 225.614Z" fill="#10393E"/>
<path opacity="0.5" d="M6.71866 164.317C5.72473 164.317 4.75306 164.022 3.92679 163.47C3.10052 162.917 2.45684 162.132 2.07733 161.214C1.79373 160.527 1.66589 159.786 1.70305 159.045C1.7402 158.303 1.94141 157.579 2.29218 156.924C2.64296 156.269 3.13456 155.701 3.73157 155.259C4.32859 154.817 5.01616 154.513 5.74474 154.369C6.47332 154.225 7.22478 154.245 7.94498 154.426C8.66518 154.607 9.33619 154.946 9.90966 155.418C10.4831 155.89 10.9448 156.483 11.2614 157.155C11.578 157.827 11.7417 158.561 11.7406 159.303C11.7404 159.962 11.6104 160.615 11.3579 161.224C11.1053 161.832 10.7353 162.385 10.2689 162.851C9.80245 163.317 9.24883 163.686 8.63966 163.937C8.03048 164.189 7.37771 164.318 6.71866 164.317ZM6.71866 157.236C6.30928 157.235 5.90889 157.356 5.56827 157.583C5.22765 157.81 4.96215 158.133 4.80545 158.511C4.64874 158.889 4.6079 159.306 4.68809 159.707C4.76829 160.108 4.96591 160.477 5.25589 160.766C5.54565 161.054 5.91409 161.25 6.31485 161.329C6.71561 161.408 7.13079 161.366 7.50816 161.21C7.88553 161.054 8.20822 160.789 8.43566 160.45C8.66309 160.111 8.78509 159.712 8.78632 159.303C8.79665 158.888 8.68143 158.479 8.45573 158.13C8.23003 157.782 7.90436 157.509 7.52128 157.348C7.26729 157.241 6.99438 157.186 6.71866 157.186V157.236ZM6.71866 152.131C5.72473 152.131 4.75306 151.836 3.92679 151.284C3.10052 150.732 2.45684 149.946 2.07733 149.028C1.79373 148.341 1.66589 147.601 1.70305 146.859C1.7402 146.117 1.94141 145.393 2.29218 144.738C2.64296 144.083 3.13456 143.515 3.73157 143.073C4.32859 142.631 5.01616 142.327 5.74474 142.183C6.47332 142.039 7.22478 142.059 7.94498 142.24C8.66518 142.421 9.33619 142.76 9.90966 143.232C10.4831 143.704 10.9448 144.297 11.2614 144.969C11.578 145.641 11.7417 146.375 11.7406 147.117C11.7404 147.776 11.6104 148.429 11.3579 149.038C11.1053 149.646 10.7353 150.199 10.2689 150.665C9.80245 151.131 9.24883 151.5 8.63966 151.751C8.03048 152.003 7.37771 152.132 6.71866 152.131ZM6.71866 145.05C6.30928 145.049 5.90889 145.17 5.56827 145.397C5.22765 145.624 4.96215 145.947 4.80545 146.325C4.64874 146.703 4.6079 147.12 4.68809 147.521C4.76829 147.923 4.96591 148.291 5.25589 148.58C5.49633 148.822 5.79264 149 6.11852 149.099C6.44441 149.199 6.7898 149.216 7.12403 149.15C7.45826 149.084 7.77099 148.936 8.03449 148.72C8.29798 148.504 8.50408 148.226 8.6345 147.912C8.76491 147.597 8.81561 147.255 8.78209 146.916C8.74857 146.577 8.63187 146.251 8.44234 145.968C8.25282 145.685 7.99633 145.453 7.69565 145.293C7.39496 145.133 7.05937 145.049 6.71866 145.05ZM227.584 210.682C226.589 210.684 225.617 210.391 224.789 209.84C224.171 209.428 223.653 208.883 223.271 208.247C222.889 207.61 222.653 206.896 222.58 206.157C222.507 205.418 222.599 204.672 222.849 203.972C223.1 203.273 223.502 202.638 224.027 202.113C224.552 201.588 225.187 201.186 225.886 200.935C226.586 200.685 227.332 200.593 228.071 200.666C228.81 200.739 229.524 200.975 230.161 201.357C230.798 201.739 231.342 202.257 231.754 202.875C232.257 203.631 232.546 204.509 232.59 205.416C232.633 206.323 232.431 207.224 232.003 208.025C231.575 208.826 230.938 209.496 230.16 209.964C229.382 210.432 228.492 210.68 227.584 210.682ZM227.584 203.601C227.174 203.599 226.773 203.718 226.431 203.944C226.09 204.17 225.824 204.493 225.666 204.871C225.507 205.249 225.465 205.665 225.543 206.067C225.622 206.469 225.819 206.839 226.108 207.128C226.324 207.346 226.585 207.512 226.874 207.616C227.162 207.72 227.469 207.759 227.774 207.729C228.079 207.7 228.373 207.603 228.636 207.445C228.899 207.288 229.123 207.074 229.293 206.819C229.521 206.479 229.642 206.079 229.642 205.67C229.644 205.261 229.525 204.861 229.299 204.521C229.073 204.18 228.751 203.915 228.374 203.758C228.123 203.654 227.855 203.601 227.584 203.601ZM6.71866 139.997C5.72473 139.997 4.75306 139.703 3.92679 139.15C3.10052 138.598 2.45684 137.812 2.07733 136.894C1.66573 135.898 1.58515 134.797 1.84746 133.752C2.10978 132.707 2.7011 131.775 3.53411 131.092C4.36712 130.409 5.39768 130.012 6.47362 129.959C7.54956 129.907 8.61386 130.202 9.50937 130.8C10.4049 131.399 11.0841 132.27 11.4469 133.284C11.8096 134.298 11.8365 135.402 11.5237 136.433C11.2109 137.464 10.575 138.367 9.70975 139.009C8.84452 139.65 7.79588 139.997 6.71866 139.997ZM6.71866 132.916C6.30928 132.915 5.90889 133.036 5.56827 133.263C5.22765 133.49 4.96215 133.813 4.80545 134.191C4.64874 134.57 4.6079 134.986 4.68809 135.387C4.76829 135.789 4.96591 136.157 5.25589 136.446C5.54565 136.734 5.91409 136.93 6.31485 137.009C6.71561 137.088 7.13079 137.047 7.50816 136.89C7.88553 136.734 8.20822 136.47 8.43566 136.13C8.66309 135.791 8.78509 135.392 8.78632 134.984C8.78646 134.712 8.73308 134.443 8.62921 134.192C8.52535 133.941 8.37306 133.713 8.18103 133.521C7.989 133.329 7.76101 133.177 7.51009 133.073C7.25916 132.969 6.99023 132.916 6.71866 132.916Z" fill="#10393E"/>
<path d="M16.1915 122.237V102.362H10.0066V122.237H16.1915Z" fill="#1ADEF5"/>
<path d="M16.1915 67.4158V47.5408H10.0066V67.4158H16.1915Z" fill="#1ADEF5"/>
<path d="M164.149 69.6572H150.41V75.8432H164.149V69.6572Z" fill="#1ADEF5"/>
<path d="M164.149 78.5815H150.41V84.7664H164.149V78.5815Z" fill="#1ADEF5"/>
<path d="M164.149 87.504H150.41V93.6889H164.149V87.5029V87.504Z" fill="#1ADEF5"/>
</g>
</g>
</g>
<defs>
<filter id="filter0_i_1_2294" x="48.1133" y="39.2153" width="79.834" height="79.834" filterUnits="userSpaceOnUse" color-interpolation-filters="sRGB">
<feFlood flood-opacity="0" result="BackgroundImageFix"/>
<feBlend mode="normal" in="SourceGraphic" in2="BackgroundImageFix" result="shape"/>
<feColorMatrix in="SourceAlpha" type="matrix" values="0 0 0 0 0 0 0 0 0 0 0 0 0 0 0 0 0 0 127 0" result="hardAlpha"/>
<feOffset/>
<feGaussianBlur stdDeviation="2.12613"/>
<feComposite in2="hardAlpha" operator="arithmetic" k2="-1" k3="1"/>
<feColorMatrix type="matrix" values="0 0 0 0 0.234914 0 0 0 0 0.898693 0 0 0 0 0.934001 0 0 0 0.5 0"/>
<feBlend mode="normal" in2="shape" result="effect1_innerShadow_1_2294"/>
</filter>
<clipPath id="clip0_1_2294">
<rect width="236" height="236" fill="white"/>
</clipPath>
<clipPath id="clip1_1_2294">
<rect width="236" height="236" fill="white"/>
</clipPath>
<clipPath id="clip2_1_2294">
<rect width="236" height="236" fill="white"/>
</clipPath>
</defs>
</svg>
