<svg width="25" height="24" viewBox="0 0 25 24" fill="none" xmlns="http://www.w3.org/2000/svg">
<g clip-path="url(#clip0_1_881)">
<path d="M10.25 23.25H8.75C7.92275 23.25 7.25 22.5773 7.25 21.75V18.75H4.25C3.42275 18.75 2.75 18.0773 2.75 17.25V9C2.75 8.17275 3.42275 7.5 4.25 7.5H5.75C6.57725 7.5 7.25 8.17275 7.25 9V14.25H11.75V21.75C11.75 22.5773 11.0773 23.25 10.25 23.25ZM4.25 9V17.25H7.25C8.07725 17.25 8.75 17.9227 8.75 18.75V21.75H10.25V15.75H5.75V9H4.25Z" fill="#61F0FE"/>
<path d="M11.75 15.75H5.75V11.25H10.25C11.0773 11.25 11.75 11.9227 11.75 12.75V15.75ZM7.25 14.25H10.25V12.7493L7.25 12.75V14.25ZM16.25 23.25H14.75C13.9227 23.25 13.25 22.5773 13.25 21.75V14.25H17.75V9C17.75 8.17275 18.4227 7.5 19.25 7.5H20.75C21.5773 7.5 22.25 8.17275 22.25 9V17.25C22.25 18.0773 21.5773 18.75 20.75 18.75H17.75V21.75C17.75 22.5773 17.0773 23.25 16.25 23.25ZM14.75 15.75V21.75H16.25V18.75C16.25 17.9227 16.9227 17.25 17.75 17.25H20.75V9H19.25V15.75H14.75Z" fill="#61F0FE"/>
<path d="M19.25 15.75H13.25V12.75C13.25 11.9227 13.9227 11.25 14.75 11.25H19.25V15.75ZM14.75 14.25H17.75V12.75H14.75V14.25ZM9.5 5.25C8.2595 5.25 7.25 4.2405 7.25 3C7.25 1.7595 8.2595 0.75 9.5 0.75C10.7405 0.75 11.75 1.7595 11.75 3C11.75 4.2405 10.7405 5.25 9.5 5.25ZM9.5 2.25C9.30689 2.25864 9.12455 2.34143 8.99096 2.48114C8.85736 2.62084 8.7828 2.8067 8.7828 3C8.7828 3.1933 8.85736 3.37916 8.99096 3.51886C9.12455 3.65857 9.30689 3.74136 9.5 3.75C9.69311 3.74136 9.87545 3.65857 10.009 3.51886C10.1426 3.37916 10.2172 3.1933 10.2172 3C10.2172 2.8067 10.1426 2.62084 10.009 2.48114C9.87545 2.34143 9.69311 2.25864 9.5 2.25ZM15.5 5.25C14.2595 5.25 13.25 4.2405 13.25 3C13.25 1.7595 14.2595 0.75 15.5 0.75C16.7405 0.75 17.75 1.7595 17.75 3C17.75 4.2405 16.7405 5.25 15.5 5.25ZM15.5 2.25C15.3011 2.25 15.1103 2.32902 14.9697 2.46967C14.829 2.61032 14.75 2.80109 14.75 3C14.75 3.19891 14.829 3.38968 14.9697 3.53033C15.1103 3.67098 15.3011 3.75 15.5 3.75C15.6989 3.75 15.8897 3.67098 16.0303 3.53033C16.171 3.38968 16.25 3.19891 16.25 3C16.25 2.80109 16.171 2.61032 16.0303 2.46967C15.8897 2.32902 15.6989 2.25 15.5 2.25Z" fill="#61F0FE"/>
<path d="M9.5 7.5C9.30109 7.5 9.11032 7.42098 8.96967 7.28033C8.82902 7.13968 8.75 6.94891 8.75 6.75V5.25C8.75 5.05109 8.82902 4.86032 8.96967 4.71967C9.11032 4.57902 9.30109 4.5 9.5 4.5C9.69891 4.5 9.88968 4.57902 10.0303 4.71967C10.171 4.86032 10.25 5.05109 10.25 5.25V6.75C10.25 6.94891 10.171 7.13968 10.0303 7.28033C9.88968 7.42098 9.69891 7.5 9.5 7.5ZM15.5 7.5C15.3011 7.5 15.1103 7.42098 14.9697 7.28033C14.829 7.13968 14.75 6.94891 14.75 6.75V4.5C14.75 4.30109 14.829 4.11032 14.9697 3.96967C15.1103 3.82902 15.3011 3.75 15.5 3.75C15.6989 3.75 15.8897 3.82902 16.0303 3.96967C16.171 4.11032 16.25 4.30109 16.25 4.5V6.75C16.25 6.94891 16.171 7.13968 16.0303 7.28033C15.8897 7.42098 15.6989 7.5 15.5 7.5ZM12.5 9.75C12.3011 9.75 12.1103 9.67098 11.9697 9.53033C11.829 9.38968 11.75 9.19891 11.75 9V7.5C11.75 7.30109 11.829 7.11032 11.9697 6.96967C12.1103 6.82902 12.3011 6.75 12.5 6.75C12.6989 6.75 12.8897 6.82902 13.0303 6.96967C13.171 7.11032 13.25 7.30109 13.25 7.5V9C13.25 9.19891 13.171 9.38968 13.0303 9.53033C12.8897 9.67098 12.6989 9.75 12.5 9.75Z" fill="#61F0FE"/>
<path d="M15.5 7.5H9.5C9.30109 7.5 9.11032 7.42098 8.96967 7.28033C8.82902 7.13968 8.75 6.94891 8.75 6.75C8.75 6.55109 8.82902 6.36032 8.96967 6.21967C9.11032 6.07902 9.30109 6 9.5 6H15.5C15.6989 6 15.8897 6.07902 16.0303 6.21967C16.171 6.36032 16.25 6.55109 16.25 6.75C16.25 6.94891 16.171 7.13968 16.0303 7.28033C15.8897 7.42098 15.6989 7.5 15.5 7.5Z" fill="#61F0FE"/>
</g>
<defs>
<clipPath id="clip0_1_881">
<rect width="24" height="24" fill="white" transform="translate(0.5)"/>
</clipPath>
</defs>
</svg>
