<svg width="24" height="24" viewBox="0 0 24 24" fill="none" xmlns="http://www.w3.org/2000/svg">
<path d="M21.5156 8.95312H20.0625V21.375H21.5156V8.95312Z" fill="#61F0FE"/>
<path d="M17.1562 14.5312H15.6562V21.375H17.1562V14.5312Z" fill="#61F0FE"/>
<path d="M12.75 12.4219H11.25V21.375H12.75V12.4219Z" fill="#61F0FE"/>
<path d="M8.34375 16.0312H6.84375V21.375H8.34375V16.0312Z" fill="#61F0FE"/>
<path d="M3.9375 14.2031H2.48438V21.375H3.9375V14.2031Z" fill="#61F0FE"/>
<path d="M20.7256 2.62036C20.3974 2.62029 20.0746 2.70348 19.7873 2.86216C19.5 3.02083 19.2577 3.24979 19.083 3.52761C18.9083 3.80543 18.807 4.12303 18.7885 4.45069C18.77 4.77835 18.8349 5.10534 18.9772 5.40108L16.894 6.54183C16.7241 6.14746 16.428 5.82064 16.0523 5.6126C15.6766 5.40457 15.2425 5.32709 14.8181 5.3923C14.3936 5.45751 14.0028 5.66172 13.7069 5.97294C13.4109 6.28415 13.2266 6.68476 13.1829 7.11197L10.736 7.31536C10.576 6.868 10.2574 6.49492 9.84054 6.2669C9.42372 6.03887 8.9377 5.97176 8.47468 6.07829C8.01165 6.18482 7.60383 6.45758 7.32857 6.84484C7.05331 7.23209 6.92975 7.70691 6.98133 8.17922L4.85587 9.32391C4.57246 8.92588 4.14892 8.64985 3.67035 8.55128C3.19178 8.45271 2.69363 8.53891 2.276 8.79254C1.85837 9.04618 1.55219 9.44847 1.41899 9.91858C1.2858 10.3887 1.33544 10.8918 1.55795 11.3268C1.78047 11.7618 2.15936 12.0965 2.61851 12.2636C3.07766 12.4308 3.58305 12.4179 4.03313 12.2277C4.4832 12.0375 4.84463 11.684 5.04478 11.2383C5.24493 10.7925 5.26898 10.2876 5.11209 9.82481L7.12931 8.73839C7.30633 9.14804 7.61918 9.48413 8.01513 9.68999C8.41107 9.89585 8.86588 9.9589 9.30289 9.8685C9.7399 9.7781 10.1324 9.53979 10.4142 9.19374C10.6959 8.84768 10.8498 8.41506 10.8497 7.9688C10.8497 7.93599 10.8488 7.90317 10.8472 7.87036L13.2079 7.67414C13.3017 8.16621 13.5822 8.60292 13.9907 8.89283C14.3992 9.18274 14.904 9.30337 15.3995 9.22947C15.8949 9.15556 16.3426 8.89286 16.6487 8.49635C16.9548 8.09985 17.0957 7.60029 17.0418 7.10227L19.2945 5.8688C19.5122 6.10691 19.7859 6.28695 20.0907 6.39261C20.3956 6.49826 20.722 6.5262 21.0404 6.47388C21.3587 6.42157 21.659 6.29066 21.9141 6.093C22.1691 5.89535 22.3708 5.6372 22.5008 5.34194C22.6309 5.04668 22.6853 4.72363 22.659 4.40205C22.6328 4.08047 22.5267 3.77053 22.3504 3.50029C22.1741 3.23005 21.9332 3.00805 21.6495 2.85441C21.3658 2.70076 21.0482 2.62032 20.7256 2.62036Z" fill="#61F0FE"/>
</svg>
