<svg width="25" height="24" viewBox="0 0 25 24" fill="none" xmlns="http://www.w3.org/2000/svg">
<rect x="0.75" y="8.22852" width="7.54303" height="7.54286" fill="#1ADEF5"/>
<path d="M0.75 0C4.91581 0 8.29303 3.37705 8.29303 7.54286H0.75V0Z" fill="#1E808C"/>
<path fill-rule="evenodd" clip-rule="evenodd" d="M8.29204 4.70423V0C7.13217 0 6.03343 0.261794 5.0517 0.729516C6.52196 1.65991 7.67032 3.05305 8.29204 4.70423Z" fill="#1E808C"/>
<rect x="8.97845" width="7.54303" height="7.54286" fill="#1ADEF5"/>
<path d="M17.207 0C21.3728 0 24.75 3.37705 24.75 7.54286H17.207V0Z" fill="#1ADEF5"/>
<rect x="17.207" y="8.22852" width="7.54303" height="7.54286" fill="#1ADEF5"/>
<path d="M17.207 16.457H24.75V23.9999C20.5842 23.9999 17.207 20.6228 17.207 16.457Z" fill="#1ADEF5"/>
<path d="M0.75 16.457H8.29303V23.9999C4.12722 23.9999 0.75 20.6228 0.75 16.457Z" fill="#1ADEF5"/>
<path d="M8.97845 16.457H16.5215C16.5215 20.6228 13.1443 23.9999 8.97845 23.9999V16.457Z" fill="#1E808C"/>
</svg>
