<svg width="24" height="24" viewBox="0 0 24 24" fill="none" xmlns="http://www.w3.org/2000/svg">
<g clip-path="url(#clip0_1_875)">
<path d="M0.629625 20.1636C0.31769 20.4778 0.105186 20.8783 0.019039 21.3145C-0.0671082 21.7507 -0.0230217 22.2028 0.145713 22.6137C0.314447 23.0246 0.600235 23.3756 0.966865 23.6224C1.33349 23.8692 1.76447 24.0006 2.20517 24C2.49779 24.0005 2.78764 23.9427 3.05803 23.8298C3.32842 23.7169 3.57402 23.5512 3.78072 23.3421L11.0942 15.9615L7.94308 12.783L0.629625 20.1636ZM18.9081 6.48442L22.0903 4.82248L23.7594 1.56903L22.2047 0L18.9808 1.68442L17.334 4.89591L13.4553 8.81024L15.0293 10.3988L18.9081 6.48442ZM19.6045 15.0159C19.5035 15.0099 19.407 14.986 19.3045 14.986C18.761 14.986 18.2458 15.0983 17.7646 15.2782L8.62022 6.04983C8.79842 5.56428 8.90979 5.04427 8.90979 4.49579C8.90979 4.39238 8.88603 4.29497 8.88009 4.19307C8.72268 1.85376 6.81302 0 4.45489 0C3.76884 0 3.12585 0.169341 2.54523 0.449579L5.50476 3.43628C5.66069 3.59363 5.7676 3.77946 5.83888 3.97577C6.03341 4.50777 5.92798 5.12669 5.50476 5.55529C5.2152 5.84752 4.83504 5.99438 4.45489 5.99438C4.27967 5.99438 4.10593 5.95542 3.93961 5.89248C3.73939 5.82033 3.55702 5.7053 3.40502 5.55529L0.445489 2.56859C0.155496 3.16909 0.00323204 3.82778 -2.96161e-07 4.49579C-2.96161e-07 6.87556 1.8369 8.80275 4.15493 8.9616C4.25591 8.96759 4.35243 8.99157 4.45489 8.99157C4.99839 8.99157 5.51367 8.87918 5.9948 8.69934L15.1392 17.9277C14.9517 18.4242 14.8537 18.9505 14.8496 19.4817C14.8496 19.5851 14.8734 19.6825 14.8793 19.7845C15.0368 22.1238 16.9464 23.9775 19.3045 23.9775C19.9906 23.9775 20.6336 23.8082 21.2142 23.5279L18.2547 20.5412C18.1055 20.3883 17.9915 20.2041 17.9206 20.0018C17.8206 19.7338 17.7989 19.4426 17.8582 19.1626C17.9174 18.8826 18.055 18.6256 18.2547 18.4222C18.5442 18.13 18.9244 17.9831 19.3045 17.9831C19.4798 17.9831 19.6535 18.0221 19.8198 18.085C20.0144 18.1585 20.1985 18.2649 20.3544 18.4222L23.3139 21.4089C23.5916 20.823 23.7594 20.1741 23.7594 19.4817C23.7594 17.102 21.9225 15.1748 19.6045 15.0159Z" fill="#61F0FE"/>
</g>
<defs>
<clipPath id="clip0_1_875">
<rect width="24" height="24" fill="white"/>
</clipPath>
</defs>
</svg>
