<svg width="25" height="24" viewBox="0 0 25 24" fill="none" xmlns="http://www.w3.org/2000/svg">
<path d="M17.0156 3C20.4644 3 22.5 4.98459 22.5 8.3818H18.2689V8.41647C16.3052 8.41647 14.7133 9.96849 14.7133 11.883C14.7133 13.7975 16.3052 15.3495 18.2689 15.3495H22.5V15.6615C22.5 19.0154 20.4644 21 17.0156 21H7.98444C4.53556 21 2.5 19.0154 2.5 15.6615V8.33847C2.5 4.98459 4.53556 3 7.98444 3H17.0156ZM21.7533 9.87241C22.1657 9.87241 22.5 10.1983 22.5 10.6004V13.131C22.4952 13.5311 22.1637 13.8543 21.7533 13.8589H18.3489C17.3548 13.872 16.4855 13.2084 16.26 12.2643C16.1471 11.6783 16.3056 11.0736 16.6931 10.6122C17.0805 10.1509 17.6573 9.88007 18.2689 9.87241H21.7533ZM18.7489 11.0424H18.42C18.2181 11.0401 18.0236 11.1166 17.88 11.255C17.7364 11.3934 17.6556 11.5821 17.6556 11.779C17.6555 12.1921 17.9964 12.5282 18.42 12.533H18.7489C19.1711 12.533 19.5133 12.1993 19.5133 11.7877C19.5133 11.3761 19.1711 11.0424 18.7489 11.0424ZM12.8822 6.89119H7.23778C6.81903 6.89116 6.4782 7.2196 6.47333 7.62783C6.47333 8.04087 6.81415 8.37705 7.23778 8.3818H12.8822C13.3044 8.3818 13.6467 8.04812 13.6467 7.6365C13.6467 7.22487 13.3044 6.89119 12.8822 6.89119Z" fill="#61F0FE"/>
</svg>
